<svg id="레이어_1" xmlns="http://www.w3.org/2000/svg" viewBox="0 0 509 41"><style>.st0{fill:#fff}</style><path class="st0" d="M5.8 21.2c.1 1.6.5 2.9 1.1 4C8.1 27 10.4 28 13.5 28c1.4 0 2.7-.2 3.9-.6 2.3-.8 3.4-2.3 3.4-4.3 0-1.6-.5-2.7-1.4-3.3-1-.7-2.5-1.2-4.5-1.7l-3.9-1c-2.5-.6-4.2-1.2-5.3-1.9C3.9 14 3 12.2 3 9.8c0-2.6.9-4.7 2.6-6.3S9.9 1 13.1 1c3 0 5.5.7 7.5 2.2s3.1 3.8 3.1 7H20c-.2-1.5-.6-2.7-1.2-3.5-1.1-1.5-3.1-2.2-5.8-2.2-2.2 0-3.8.5-4.8 1.4-1 1-1.5 2.1-1.5 3.4 0 1.4.6 2.4 1.7 3.1.8.4 2.5.9 5.1 1.6l3.9.9c1.9.4 3.4 1 4.4 1.8 1.8 1.3 2.7 3.3 2.7 5.8 0 3.2-1.1 5.4-3.4 6.8-2.3 1.4-4.9 2.1-7.9 2.1-3.5 0-6.3-.9-8.3-2.7-2-1.8-3-4.3-2.9-7.4h3.8zM33.2 9.5v13.9c0 1.1.2 1.9.5 2.6.6 1.2 1.8 1.9 3.4 1.9 2.4 0 4-1.1 4.9-3.3.5-1.2.7-2.8.7-4.8V9.5h3.6v20.9H43v-3.1c-.5.8-1 1.5-1.7 2-1.3 1.1-2.9 1.7-4.8 1.7-3 0-5-1-6-3-.6-1.1-.9-2.5-.9-4.3V9.5h3.6zM51.9 9.6h3.5v2.8c.7-1 1.5-1.7 2.3-2.2 1.2-.8 2.6-1.2 4.2-1.2 2.4 0 4.4.9 6.1 2.7 1.7 1.8 2.5 4.4 2.5 7.8 0 4.6-1.2 7.8-3.6 9.8-1.5 1.2-3.3 1.9-5.3 1.9-1.6 0-2.9-.3-4-1-.6-.4-1.3-1.1-2.1-2v10.7h-3.6V9.6zM65.2 26c1.1-1.4 1.7-3.4 1.7-6.2 0-1.7-.2-3.1-.7-4.3-.9-2.3-2.6-3.5-5.1-3.5-2.5 0-4.2 1.2-5.1 3.7-.5 1.3-.7 3-.7 5 0 1.6.2 3 .7 4.1.9 2.2 2.6 3.2 5.1 3.2 1.6.1 3-.6 4.1-2zM74.3 9.6h3.5v2.8c.7-1 1.5-1.7 2.3-2.2 1.2-.8 2.6-1.2 4.3-1.2 2.4 0 4.4.9 6.1 2.7 1.7 1.8 2.5 4.4 2.5 7.8 0 4.6-1.2 7.8-3.6 9.8-1.5 1.2-3.3 1.9-5.3 1.9-1.6 0-2.9-.3-4-1-.6-.4-1.3-1.1-2.1-2v10.7h-3.6V9.6zM87.7 26c1.1-1.4 1.7-3.4 1.7-6.2 0-1.7-.2-3.1-.7-4.3-.9-2.3-2.6-3.5-5.1-3.5-2.5 0-4.2 1.2-5.1 3.7-.5 1.3-.7 3-.7 5 0 1.6.2 3 .7 4.1.9 2.2 2.6 3.2 5.1 3.2 1.6.1 3-.6 4.1-2zM112.4 11.6c1.9 1.8 2.8 4.4 2.8 7.9 0 3.4-.8 6.2-2.5 8.4-1.6 2.2-4.2 3.3-7.7 3.3-2.9 0-5.2-1-6.9-2.9-1.7-1.9-2.5-4.6-2.5-7.8 0-3.5.9-6.3 2.7-8.4 1.8-2.1 4.2-3.1 7.2-3.1 2.7-.1 5 .8 6.9 2.6zm-2.2 13.9c.9-1.8 1.3-3.7 1.3-5.9 0-2-.3-3.5-.9-4.8-1-1.9-2.7-2.9-5.1-2.9-2.1 0-3.7.8-4.7 2.5-1 1.6-1.5 3.6-1.5 5.9 0 2.2.5 4.1 1.5 5.6s2.5 2.2 4.6 2.2c2.3 0 3.9-.9 4.8-2.6zM119.7 9.5h3.4v3.6c.3-.7 1-1.6 2-2.6s2.3-1.5 3.7-1.5h.3c.2 0 .4 0 .8.1v3.7c-.2 0-.4-.1-.6-.1h-.6c-1.8 0-3.2.6-4.1 1.7s-1.4 2.5-1.4 3.9v12h-3.6V9.5zM133.7 3.7h3.6v5.8h3.4v2.9h-3.4V26c0 .7.2 1.2.8 1.5.3.1.7.2 1.4.2h.6c.2 0 .4 0 .7-.1v2.8c-.4.1-.8.2-1.3.3s-.9.1-1.4.1c-1.7 0-2.8-.4-3.4-1.3s-.9-1.9-.9-3.3V12.4h-2.9V9.5h2.9V3.7zM156.1 1.7h11.6c3.9 0 7 1.4 9.1 4.2 1.9 2.5 2.9 5.8 2.9 9.7 0 3-.6 5.8-1.7 8.3-2 4.3-5.5 6.5-10.4 6.5h-11.5V1.7zm10.8 25.4c1.3 0 2.4-.1 3.2-.4 1.5-.5 2.7-1.5 3.7-2.9.8-1.2 1.3-2.6 1.6-4.5.2-1.1.3-2.1.3-3 0-3.6-.7-6.3-2.1-8.3-1.4-2-3.6-2.9-6.7-2.9h-6.8v22h6.8zM197.7 10.1c1.4.7 2.5 1.6 3.2 2.7.7 1.1 1.2 2.3 1.4 3.7.2 1 .3 2.5.3 4.6h-15.4c.1 2.1.6 3.8 1.5 5.1s2.4 1.9 4.4 1.9c1.8 0 3.3-.6 4.4-1.8.6-.7 1-1.5 1.3-2.5h3.5c-.1.8-.4 1.6-.9 2.6s-1.1 1.7-1.7 2.3c-1.1 1-2.4 1.7-4 2.1-.8.2-1.8.3-2.9.3-2.6 0-4.8-.9-6.6-2.8-1.8-1.9-2.7-4.5-2.7-8 0-3.4.9-6.1 2.7-8.2C188 10 190.4 9 193.4 9c1.4 0 2.9.4 4.3 1.1zm1.3 8.2c-.1-1.5-.5-2.7-1-3.7-1-1.7-2.6-2.5-4.8-2.5-1.6 0-3 .6-4.1 1.7-1.1 1.2-1.7 2.6-1.7 4.4H199zM221.1 10.6c1.5 1.1 2.4 3.1 2.7 5.9h-3.5c-.2-1.3-.7-2.4-1.4-3.2-.8-.9-2-1.3-3.6-1.3-2.3 0-3.9 1.1-4.9 3.3-.6 1.4-.9 3.2-.9 5.2 0 2.1.4 3.9 1.3 5.3s2.3 2.1 4.2 2.1c1.5 0 2.6-.4 3.5-1.3.9-.9 1.5-2.1 1.8-3.6h3.5c-.4 2.8-1.4 4.8-3 6.1s-3.6 1.9-6.1 1.9c-2.8 0-5-1-6.6-3-1.6-2-2.5-4.5-2.5-7.5 0-3.7.9-6.5 2.7-8.6s4.1-3.1 6.9-3.1c2.4.1 4.4.7 5.9 1.8zM240.4 10.1c1.4.7 2.5 1.6 3.2 2.7.7 1.1 1.2 2.3 1.4 3.7.2 1 .3 2.5.3 4.6h-15.4c.1 2.1.6 3.8 1.5 5.1s2.4 1.9 4.4 1.9c1.8 0 3.3-.6 4.4-1.8.6-.7 1-1.5 1.3-2.5h3.5c-.1.8-.4 1.6-.9 2.6s-1.1 1.7-1.7 2.3c-1.1 1-2.4 1.7-4 2.1-.8.2-1.8.3-2.9.3-2.6 0-4.8-.9-6.6-2.8-1.8-1.9-2.7-4.5-2.7-8 0-3.4.9-6.1 2.7-8.2 1.8-2.1 4.2-3.1 7.2-3.1 1.4 0 2.9.4 4.3 1.1zm1.2 8.2c-.1-1.5-.5-2.7-1-3.7-1-1.7-2.6-2.5-4.8-2.5-1.6 0-3 .6-4.1 1.7-1.1 1.2-1.7 2.6-1.7 4.4h11.6zM249.8 9.5h3.4v3c1-1.2 2.1-2.1 3.2-2.6s2.4-.8 3.7-.8c3 0 5 1 6.1 3.1.6 1.1.9 2.8.9 4.9v13.4h-3.6V17.2c0-1.3-.2-2.3-.6-3.1-.6-1.3-1.8-2-3.4-2-.8 0-1.5.1-2.1.3-1 .3-1.8.9-2.6 1.7-.6.7-1 1.4-1.2 2.1s-.3 1.8-.3 3.2v11h-3.6V9.5zM272.9 3.7h3.6v5.8h3.4v2.9h-3.4V26c0 .7.2 1.2.8 1.5.3.1.7.2 1.4.2h.6c.2 0 .4 0 .7-.1v2.8c-.4.1-.8.2-1.3.3s-.9.1-1.4.1c-1.7 0-2.8-.4-3.4-1.3s-.9-1.9-.9-3.3V12.4h-2.9V9.5h2.9V3.7zM283.6 9.5h3.4v3.6c.3-.7 1-1.6 2-2.6s2.3-1.5 3.7-1.5h.3c.2 0 .4 0 .8.1v3.7c-.2 0-.4-.1-.6-.1h-.6c-1.8 0-3.2.6-4.1 1.7s-1.4 2.5-1.4 3.9v12h-3.6V9.5zM308.2 17.8c.8-.1 1.4-.4 1.6-1 .2-.3.2-.8.2-1.4 0-1.2-.4-2.1-1.3-2.6s-2.1-.8-3.7-.8c-1.9 0-3.2.5-3.9 1.5-.4.5-.7 1.4-.8 2.5H297c.1-2.6.9-4.4 2.5-5.4s3.5-1.5 5.6-1.5c2.5 0 4.5.5 6 1.4 1.5.9 2.3 2.4 2.3 4.4V27c0 .4.1.7.2.9.2.2.5.3 1 .3h.5c.2 0 .4 0 .6-.1v2.6c-.6.2-1 .3-1.3.3s-.7.1-1.2.1c-1.2 0-2.1-.4-2.7-1.3-.3-.5-.5-1.1-.6-1.9-.7.9-1.8 1.8-3.1 2.4-1.4.7-2.8 1-4.5 1-2 0-3.6-.6-4.8-1.8-1.2-1.2-1.9-2.6-1.9-4.4 0-1.9.6-3.4 1.8-4.5s2.8-1.7 4.8-2l6-.8zm-7.4 9.5c.8.6 1.6.9 2.7.9 1.2 0 2.5-.3 3.6-.9 2-.9 3-2.5 3-4.7v-2.8c-.4.3-1 .5-1.7.7-.7.2-1.4.3-2 .4l-2.1.3c-1.3.2-2.3.4-2.9.8-1.1.6-1.6 1.6-1.6 2.9-.2 1 .2 1.8 1 2.4zM319.5 1.7h3.6v28.7h-3.6V1.7zM346.3 1.7h4.4l10.5 28.7H357l-3-8.6h-11.4l-3.1 8.6h-4l10.8-28.7zm6.5 17L348.4 6l-4.6 12.7h9zM365.3 1.7h13.2c2.2 0 4 .3 5.4 1 2.7 1.2 4 3.5 4 6.8 0 1.7-.4 3.1-1.1 4.2s-1.7 2-3 2.6c1.1.5 2 1.1 2.6 1.8s.9 1.9 1 3.6l.1 3.8c0 1.1.1 1.9.3 2.4.2.9.7 1.5 1.3 1.8v.6h-4.8c-.1-.2-.2-.6-.3-1s-.1-1.1-.2-2.3l-.2-4.8c-.1-1.9-.8-3.1-2-3.8-.7-.4-1.9-.5-3.4-.5h-8.7v12.3h-3.9V1.7zM378 14.9c1.8 0 3.2-.4 4.2-1.1s1.6-2 1.6-3.9c0-2-.7-3.4-2.2-4.2-.8-.4-1.8-.6-3.1-.6h-9.3v9.8h8.8zM407.1 1.7l5.5 23.3 6.5-23.3h4.2l6.6 23.4 5.5-23.4h4.3l-7.6 28.7H428l-6.7-23.8-6.7 23.8h-4.1l-7.6-28.7h4.2zM457.5 11.6c1.9 1.8 2.8 4.4 2.8 7.9 0 3.4-.8 6.2-2.5 8.4-1.6 2.2-4.2 3.3-7.7 3.3-2.9 0-5.2-1-6.9-2.9-1.7-1.9-2.5-4.6-2.5-7.8 0-3.5.9-6.3 2.7-8.4 1.8-2.1 4.2-3.1 7.2-3.1 2.7-.1 5 .8 6.9 2.6zm-2.3 13.9c.9-1.8 1.3-3.7 1.3-5.9 0-2-.3-3.5-.9-4.8-1-1.9-2.7-2.9-5.1-2.9-2.1 0-3.7.8-4.7 2.5-1 1.6-1.5 3.6-1.5 5.9 0 2.2.5 4.1 1.5 5.6s2.5 2.2 4.6 2.2c2.4 0 4-.9 4.8-2.6zM464.7 9.5h3.4v3.6c.3-.7 1-1.6 2-2.6s2.3-1.5 3.7-1.5h.3c.2 0 .4 0 .8.1v3.7c-.2 0-.4-.1-.6-.1h-.6c-1.8 0-3.2.6-4.1 1.7s-1.4 2.5-1.4 3.9v12h-3.6V9.5zM478.2 1.7h3.6v28.7h-3.6V1.7zM498.6 10.1c.6.4 1.3 1.1 2.1 2.1V1.6h3.4v28.8H501v-2.9c-.8 1.3-1.8 2.2-2.9 2.8-1.1.6-2.4.9-3.9.9-2.3 0-4.4-1-6.1-2.9-1.7-2-2.6-4.6-2.6-7.8 0-3 .8-5.7 2.3-7.9s3.8-3.3 6.7-3.3c1.7-.2 3.1.2 4.1.8zm-7.9 15.7c1 1.5 2.5 2.3 4.6 2.3 1.6 0 3-.7 4-2.1 1.1-1.4 1.6-3.4 1.6-6s-.5-4.6-1.6-5.9-2.4-1.9-4-1.9c-1.8 0-3.2.7-4.3 2s-1.7 3.3-1.7 6c0 2.2.5 4.1 1.4 5.6z"/></svg>