<svg id="title_1_" xmlns="http://www.w3.org/2000/svg" viewBox="0 0 133.5 68"><style>.st0{fill:#fff}</style><g id="ARGear_Application_Type_xA0_이미지_1_"><path class="st0" d="M23.9 6H8.6v6.1h14v5h-14v7.4h15.9v5.2H2.8V1h21.1v5zM46 9.7c1.4 1.2 2.1 3.1 2.1 5.7v14.3h-5.7V16.8c0-1.1-.1-2-.4-2.6-.5-1.1-1.6-1.6-3.1-1.6-1.9 0-3.2.8-3.9 2.4-.4.8-.5 1.9-.5 3.2v11.5h-5.6V8.5h5.4v3.1c.7-1.1 1.4-1.9 2-2.4 1.1-.9 2.6-1.3 4.3-1.3 2.2 0 4 .6 5.4 1.8zM63.8 8.4c1.4.6 2.4 1.6 3.3 3.1v-3h5.4v20.2c0 2.7-.5 4.8-1.4 6.2-1.6 2.4-4.6 3.6-9.1 3.6-2.7 0-4.9-.5-6.7-1.6s-2.7-2.7-2.9-4.8h6.1c.2.7.4 1.1.8 1.4.6.5 1.6.8 3 .8 2 0 3.3-.7 4-2 .4-.9.7-2.3.7-4.3v-1.4c-.5.9-1.1 1.6-1.7 2.1-1.1.8-2.5 1.3-4.3 1.3-2.7 0-4.9-1-6.6-2.9s-2.5-4.5-2.5-7.8c0-3.2.8-5.8 2.4-8s3.8-3.2 6.7-3.2c1.1-.2 2 0 2.8.3zm1.9 15.3c.9-1 1.3-2.5 1.3-4.7 0-2-.4-3.6-1.3-4.6-.8-1.1-2-1.6-3.4-1.6-1.9 0-3.3.9-4 2.8-.4 1-.6 2.2-.6 3.6 0 1.2.2 2.3.6 3.3.8 1.8 2.1 2.7 4 2.7 1.4 0 2.5-.5 3.4-1.5zM83.4 5.9h-5.6V.8h5.6v5.1zm-5.6 2.6h5.6v21.3h-5.6V8.5zM106 9.7c1.4 1.2 2.1 3.1 2.1 5.7v14.3h-5.7V16.8c0-1.1-.1-2-.4-2.6-.5-1.1-1.6-1.6-3.1-1.6-1.9 0-3.2.8-3.9 2.4-.4.8-.5 1.9-.5 3.2v11.5h-5.6V8.5h5.4v3.1c.7-1.1 1.4-1.9 2-2.4 1.1-.9 2.6-1.3 4.3-1.3 2.2 0 4 .6 5.4 1.8zM127.1 8.9c1.5.7 2.7 1.7 3.7 3.1.9 1.3 1.4 2.7 1.7 4.4.1 1 .2 2.4.2 4.2h-15.5c.1 2.1.8 3.6 2.2 4.5.8.5 1.9.8 3.1.8 1.3 0 2.3-.3 3.1-1 .4-.4.8-.8 1.1-1.5h5.7c-.1 1.3-.8 2.5-2.1 3.8-1.9 2.1-4.6 3.1-8 3.1-2.8 0-5.3-.9-7.5-2.6-2.2-1.7-3.2-4.6-3.2-8.5 0-3.7 1-6.5 2.9-8.5s4.5-3 7.6-3c1.9.2 3.5.5 5 1.2zm-8.3 4.8c-.8.8-1.3 1.9-1.5 3.3h9.6c-.1-1.5-.6-2.6-1.5-3.4-.9-.8-2-1.1-3.3-1.1-1.4 0-2.5.4-3.3 1.2z"/><g><path class="st0" d="M8.6 54.8c-.6-.4-1.3-.6-2.1-.6-.7 0-1.3.1-1.8.4-.5.3-.9.6-1.2 1s-.5.9-.6 1.5c-.1.6-.2 1.1-.2 1.7 0 .7.1 1.3.2 1.8.1.6.4 1.1.7 1.5.3.4.7.8 1.2 1 .5.3 1.1.4 1.8.4.5 0 .9-.1 1.3-.2.4-.2.7-.4 1-.7.3-.3.5-.6.7-1s.3-.8.3-1.3h1.5c-.1 1.4-.6 2.6-1.5 3.4-.8.8-2 1.2-3.5 1.2-.9 0-1.7-.2-2.3-.5-.7-.3-1.2-.7-1.6-1.3-.4-.5-.8-1.2-1-1.9-.2-.7-.3-1.5-.3-2.3s.1-1.6.4-2.3c.2-.7.6-1.4 1-1.9.5-.5 1-1 1.7-1.3.7-.3 1.5-.5 2.3-.5.6 0 1.2.1 1.7.2.5.2 1 .4 1.4.7s.8.7 1 1.2.5 1 .5 1.6H9.7c-.1-.8-.5-1.4-1.1-1.8zM12.8 58.7c.2-.5.4-1 .8-1.4.3-.4.8-.7 1.3-.9s1.1-.3 1.7-.3c.7 0 1.2.1 1.7.3s.9.5 1.3.9.6.8.8 1.4c.2.5.3 1.1.3 1.7s-.1 1.2-.3 1.7c-.2.5-.4 1-.8 1.4-.3.4-.8.7-1.3.9-.5.2-1.1.3-1.7.3-.7 0-1.2-.1-1.7-.3-.5-.2-.9-.5-1.3-.9-.3-.4-.6-.8-.8-1.4-.2-.5-.3-1.1-.3-1.7s.2-1.1.3-1.7zm1.4 3.1c.1.4.3.7.6 1 .2.3.5.5.8.6.3.1.6.2 1 .2s.7-.1 1-.2c.3-.1.6-.3.8-.6.2-.3.4-.6.6-1s.2-.8.2-1.3-.1-.9-.2-1.3-.3-.7-.6-1c-.2-.3-.5-.5-.8-.6-.3-.1-.6-.2-1-.2s-.7.1-1 .2c-.3.1-.6.3-.8.6-.2.3-.4.6-.6 1s-.2.7-.2 1.2.1 1 .2 1.4zM23.4 56.3V58c.3-.7.7-1.2 1.2-1.5.5-.3 1.1-.5 1.8-.4v1.4c-.5 0-1 .1-1.4.2-.4.1-.7.4-.9.7-.2.3-.4.6-.5 1-.1.4-.2.9-.2 1.4v3.7H22v-8.3h1.4zM33.1 64c-.6.5-1.4.7-2.3.7-.7 0-1.2-.1-1.7-.3-.5-.2-.9-.5-1.2-.9-.3-.4-.6-.8-.7-1.4s-.3-1.1-.3-1.7c0-.6.1-1.2.3-1.7.2-.5.5-1 .8-1.4s.8-.7 1.2-.9c.5-.2 1-.3 1.6-.3.7 0 1.3.2 1.8.5s.9.7 1.2 1.2c.3.5.5 1 .6 1.5.1.6.2 1.1.1 1.6h-6.2c0 .4 0 .7.1 1 .1.3.3.6.5.9.2.3.5.5.8.6.3.2.7.2 1.2.2.6 0 1-.1 1.4-.4s.6-.7.7-1.2h1.3c-.2.9-.6 1.6-1.2 2zm-.3-5.3c-.1-.3-.3-.5-.5-.7s-.5-.4-.7-.5c-.3-.1-.6-.2-.9-.2-.4 0-.7.1-1 .2-.3.1-.5.3-.7.5-.2.2-.4.5-.5.7-.1.3-.2.6-.2.9H33c0-.3-.1-.6-.2-.9zM45.3 53.1l4.5 11.4h-1.7l-1.2-3.4H42l-1.3 3.4h-1.6l4.4-11.4h1.8zm1.1 6.8l-1.9-5.3-1.9 5.3h3.8zM56.3 53.1c1.1 0 1.9.3 2.6.8s.9 1.3.9 2.2c0 .7-.2 1.3-.5 1.8s-.8.9-1.5 1.1c.3.1.6.2.8.3s.4.3.5.5c.1.2.2.4.3.7.1.3.1.5.1.8v.8c0 .2 0 .6.1.8 0 .3.1.5.2.8.1.3.2.5.4.7h-1.7c-.1-.1-.2-.3-.2-.5s-.1-.4-.1-.7v-.8c0-.3 0-.6-.1-.8 0-.3-.1-.5-.2-.8-.1-.2-.2-.5-.3-.7s-.4-.1-.6-.2-.5-.2-.9-.2h-3.7v4.9h-1.5V53.1h5.4zm.3 5.2c.3-.1.6-.2.8-.3s.4-.4.6-.6c.1-.3.2-.6.2-1 0-.6-.2-1-.5-1.4-.3-.4-.8-.5-1.6-.5h-3.8v4h3.2c.4-.1.8-.1 1.1-.2zM74.2 53.1v1.3h-6.4V58h5.9v1.3h-5.9v4h6.4v1.3h-7.9V53.1h7.9zM77.1 56.3v1.3c.6-1 1.5-1.5 2.7-1.5.5 0 1 .1 1.4.2s.7.4.9.6c.2.3.4.6.5 1 .1.4.1.8.1 1.2v5.4h-1.4V59c0-.5-.1-.9-.4-1.2-.3-.3-.7-.4-1.2-.4-.4 0-.8.1-1.1.2s-.6.2-.8.4c-.2.2-.4.5-.5.8s-.2.7-.2 1v4.7h-1.4v-8.3h1.4zM91 66.9c-.6.7-1.6 1-2.9 1-.4 0-.8 0-1.2-.1-.4-.1-.8-.2-1.1-.4-.3-.2-.6-.4-.8-.8-.2-.3-.3-.7-.4-1.1H86c0 .2.1.5.2.6.1.2.3.3.5.4s.4.2.7.2c.2 0 .5.1.7.1.4 0 .8-.1 1.1-.2.3-.2.6-.4.8-.6.2-.3.3-.6.4-1 .1-.4.1-.8.1-1.3v-.5c-.2.5-.6.9-1.1 1.1-.5.2-1 .4-1.5.4-.6 0-1.2-.1-1.6-.3-.5-.2-.8-.5-1.2-.9-.3-.4-.5-.8-.7-1.3-.2-.5-.2-1-.2-1.6 0-.5.1-1 .2-1.5s.3-1 .6-1.4c.3-.4.7-.8 1.2-1 .5-.3 1.1-.4 1.8-.4.5 0 1 .1 1.4.3s.8.6 1 1v-1.2h1.3V64c.2 1.2-.1 2.2-.7 2.9zm-1.8-3.7c.3-.2.6-.4.8-.7.2-.3.3-.6.4-1 .1-.4.1-.8.1-1.2 0-.4 0-.7-.1-1.1-.1-.4-.2-.7-.4-1-.2-.3-.4-.5-.7-.7s-.7-.3-1.1-.3c-.4 0-.8.1-1.1.2-.3.2-.6.4-.8.7s-.3.6-.4 1c-.1.4-.1.7-.1 1.1 0 .4 0 .7.1 1.1s.2.7.4 1 .4.5.7.7c.3.2.7.3 1.1.3.4.2.8.1 1.1-.1zM94 54.8v-1.7h1.4v1.7H94zm1.4 1.5v8.3H94v-8.3h1.4zM98.8 56.3v1.3c.6-1 1.5-1.5 2.7-1.5.5 0 1 .1 1.4.2s.7.4.9.6c.2.3.4.6.5 1 .1.4.1.8.1 1.2v5.4H103V59c0-.5-.1-.9-.4-1.2-.3-.3-.7-.4-1.2-.4-.4 0-.8.1-1.1.2s-.6.3-.8.5c-.2.2-.4.5-.5.8s-.2.7-.2 1v4.7h-1.4v-8.3h1.4zM112.2 64c-.6.5-1.4.7-2.3.7-.7 0-1.2-.1-1.7-.3-.5-.2-.9-.5-1.2-.9-.3-.4-.6-.8-.7-1.4-.2-.5-.3-1.1-.3-1.7 0-.6.1-1.2.3-1.7.2-.5.5-1 .8-1.4s.8-.7 1.2-.9c.5-.2 1-.3 1.6-.3.7 0 1.3.2 1.8.5s.9.7 1.2 1.2c.3.5.5 1 .6 1.5.1.6.2 1.1.1 1.6h-6.2c0 .4 0 .7.1 1 .1.3.3.6.5.9.2.3.5.5.8.6.3.2.7.2 1.2.2.6 0 1-.1 1.4-.4s.6-.7.7-1.2h1.3c-.1.9-.5 1.6-1.2 2zm-.3-5.3c-.1-.3-.3-.5-.5-.7s-.5-.4-.7-.5c-.3-.1-.6-.2-.9-.2-.4 0-.7.1-1 .2-.3.1-.5.3-.7.5-.2.2-.4.5-.5.7-.1.3-.2.6-.2.9h4.8l-.3-.9z"/></g></g></svg>