<svg xmlns="http://www.w3.org/2000/svg" viewBox="0 0 113 31.6"><style>.st0{fill:#2a2e2f}</style><path class="st0" d="M5.8 4.8c2.3-2.4 5.3-3.6 8.8-3.6 4.8 0 8.3 1.6 10.5 4.8 1.2 1.8 1.9 3.6 2 5.4h-6c-.4-1.4-.9-2.4-1.5-3.2-1-1.2-2.6-1.8-4.7-1.8-2.2 0-3.9.9-5.1 2.6-1.2 1.8-1.9 4.3-1.9 7.5s.7 5.6 2 7.3c1.3 1.6 3 2.4 5 2.4 2.1 0 3.6-.7 4.7-2.1.6-.7 1.1-1.9 1.5-3.3h6c-.5 3.1-1.8 5.7-4 7.7-2.1 2-4.8 2.9-8.1 2.9-4.1 0-7.3-1.3-9.7-4-2.3-2.7-3.5-6.3-3.5-11 0-5 1.3-8.9 4-11.6zM37.2 30.6h-5.6V1.8h5.6v28.8zM60.4 28c-1.8 2.2-4.5 3.3-8.2 3.3S45.8 30.2 44 28s-2.7-4.9-2.7-8c0-3.1.9-5.7 2.7-8s4.5-3.4 8.2-3.4 6.4 1.1 8.2 3.4 2.7 4.9 2.7 8c-.1 3.1-1 5.8-2.7 8zm-4.5-3.1c.9-1.2 1.3-2.8 1.3-4.9 0-2.1-.4-3.8-1.3-4.9-.9-1.2-2.1-1.7-3.8-1.7s-2.9.6-3.8 1.7c-.9 1.2-1.3 2.8-1.3 4.9 0 2.1.4 3.8 1.3 4.9s2.1 1.7 3.8 1.7 2.9-.6 3.8-1.7zM72.6 9.3v12.8c0 1.2.1 2.1.4 2.7.5 1.1 1.5 1.6 3 1.6 1.9 0 3.2-.8 3.9-2.3.4-.8.5-1.9.5-3.3V9.3H86v21.3h-5.4v-3c-.1.1-.2.3-.4.6s-.5.6-.7.9c-.9.8-1.7 1.3-2.5 1.6-.8.3-1.8.4-2.9.4-3.1 0-5.3-1.1-6.3-3.4-.6-1.2-.9-3.1-.9-5.5V9.3h5.7zM102.8 9.6c1 .6 1.8 1.4 2.4 2.4V1.8h5.6v28.8h-5.4v-2.9c-.8 1.3-1.7 2.2-2.7 2.8s-2.3.9-3.8.9c-2.5 0-4.6-1-6.3-3s-2.5-4.6-2.5-7.7c0-3.6.8-6.5 2.5-8.6S96.5 9 99.3 9c1.3-.2 2.5.1 3.5.6zm1.3 15.2c.8-1.2 1.2-2.7 1.2-4.6 0-2.6-.7-4.5-2-5.6-.8-.7-1.7-1-2.8-1-1.6 0-2.8.6-3.6 1.8s-1.1 2.8-1.1 4.6c0 2 .4 3.5 1.2 4.7s2 1.8 3.5 1.8 2.8-.5 3.6-1.7z"/></svg>