<svg xmlns="http://www.w3.org/2000/svg" viewBox="0 0 169 120.7"><style>.st0{fill:#2a2e2f}</style><path class="st0" d="M18 1.1c2 .7 3.7 1.9 4.9 3.7 1 1.4 1.7 3 2.1 4.6.4 1.7.5 3.3.5 4.8 0 3.8-.8 7.1-2.3 9.7-2.1 3.6-5.3 5.4-9.7 5.4H1.2V.4h12.4c1.8.1 3.2.3 4.4.7zM7 5.4v18.8h5.6c2.8 0 4.8-1.4 5.9-4.2.6-1.5.9-3.4.9-5.5 0-2.9-.5-5.2-1.4-6.7-.9-1.6-2.7-2.4-5.5-2.4H7zM49.4 16.8c-1.7 1.4-4.1 2.1-7.2 2.1h-6v10.4h-6V.4h12.4c2.8 0 5.1.7 6.8 2.2 1.7 1.5 2.5 3.8 2.5 6.9 0 3.4-.8 5.8-2.5 7.3zM44.8 6.4c-.8-.6-1.8-1-3.2-1h-5.4v8.5h5.4c1.4 0 2.4-.3 3.2-1s1.1-1.8 1.1-3.3-.4-2.6-1.1-3.2zM78.9 26.7c-2.2 2.2-5.3 3.4-9.4 3.4s-7.3-1.1-9.4-3.4c-2.9-2.7-4.4-6.7-4.4-11.9 0-5.3 1.5-9.2 4.4-11.9C62.3.7 65.4-.5 69.5-.5s7.3 1.1 9.4 3.4c2.9 2.6 4.4 6.6 4.4 11.9 0 5.2-1.5 9.1-4.4 11.9zm-3.8-4.4c1.4-1.8 2.1-4.3 2.1-7.5s-.7-5.7-2.1-7.5-3.3-2.6-5.7-2.6-4.3.9-5.7 2.6-2.1 4.3-2.1 7.5.7 5.7 2.1 7.5 3.3 2.6 5.7 2.6 4.3-.9 5.7-2.6zM96.1.4h6.8l10.2 28.8h-6.5l-1.9-5.9H94l-2 5.9h-6.3L96.1.4zm-.4 17.9h7.4L99.4 7l-3.7 11.3zM135.2 1.2c1.1.5 2 1.1 2.7 2 .6.7 1.1 1.5 1.4 2.4s.5 1.9.5 3c0 1.4-.3 2.7-1 4s-1.8 2.3-3.4 2.8c1.3.5 2.3 1.3 2.8 2.3s.8 2.5.8 4.5v1.9c0 1.3.1 2.2.2 2.7.2.7.5 1.3 1.1 1.6v.7h-6.6c-.2-.6-.3-1.2-.4-1.5-.2-.8-.2-1.6-.3-2.5v-2.7c0-1.8-.3-3.1-1-3.7-.6-.6-1.8-.9-3.4-.9h-5.9v11.3h-5.9V.4h13.8c2 .1 3.5.3 4.6.8zm-12.5 4.2v7.7h6.5c1.3 0 2.3-.2 2.9-.5 1.1-.5 1.7-1.6 1.7-3.2 0-1.7-.6-2.9-1.7-3.5-.6-.3-1.5-.5-2.8-.5h-6.6zM166.9 5.5h-15.2v6.1h14v5h-14V24h15.9v5.2h-21.8V.4h21.1v5.1z"/><g><path class="st0" d="M5.9 53.3c1.6 0 2.9.4 3.8 1.3s1.3 2.1 1.3 3.8c0 .9-.1 1.7-.3 2.4-.2.7-.5 1.3-.9 1.8s-1 .8-1.6 1.1-1.4.4-2.3.4H2.2V53.3h3.7zm.1 9.6h.6c.2 0 .5-.1.8-.2.3-.1.5-.2.8-.4s.5-.4.7-.7c.2-.3.4-.7.5-1.2.1-.5.2-1 .2-1.7 0-.6-.1-1.2-.2-1.7s-.3-.9-.6-1.3-.7-.6-1.1-.8c-.5-.2-1-.3-1.7-.3H3.6v8.3H6zM18 63.6c-.6.4-1.3.7-2.2.7-.6 0-1.2-.1-1.6-.3-.5-.2-.8-.5-1.1-.8-.3-.4-.5-.8-.7-1.3-.2-.5-.2-1-.3-1.6 0-.6.1-1.1.3-1.6.2-.5.4-.9.8-1.3s.7-.6 1.2-.8c.4-.2.9-.3 1.5-.3.7 0 1.3.1 1.7.4s.8.6 1.1 1.1c.3.4.5.9.6 1.4.1.5.1 1 .1 1.5h-5.8c0 .3 0 .7.1 1 .1.3.2.6.4.8.2.2.5.4.8.6.3.1.7.2 1.1.2.5 0 1-.1 1.3-.4.3-.2.6-.6.7-1.1h1.3c-.3.7-.7 1.3-1.3 1.8zm-.3-5c-.1-.3-.3-.5-.5-.7-.2-.2-.4-.3-.7-.5-.3-.1-.6-.2-.9-.2-.3 0-.6.1-.9.2-.3.1-.5.3-.7.5-.2.2-.3.4-.5.7-.1.3-.2.5-.2.8h4.5c.1-.3.1-.6-.1-.8zM22 53.3V64h-1.3V53.3H22zM29.4 63.6c-.6.4-1.3.7-2.2.7-.6 0-1.2-.1-1.6-.3-.5-.2-.8-.5-1.1-.8-.3-.4-.5-.8-.7-1.3-.2-.5-.2-1-.3-1.6 0-.6.1-1.1.3-1.6.2-.5.4-.9.8-1.3s.7-.6 1.2-.8c.4-.2.9-.3 1.5-.3.7 0 1.3.1 1.7.4s.8.6 1.1 1.1c.3.4.5.9.6 1.4.1.5.1 1 .1 1.5H25c0 .3 0 .7.1 1 .1.3.2.6.4.8.2.2.5.4.8.6.3.1.7.2 1.1.2.5 0 1-.1 1.3-.4.3-.2.6-.6.7-1.1h1.3c-.3.7-.7 1.3-1.3 1.8zm-.3-5c-.1-.3-.3-.5-.5-.7-.2-.2-.4-.3-.7-.5-.3-.1-.6-.2-.9-.2-.3 0-.6.1-.9.2-.3.1-.5.3-.7.5-.2.2-.3.4-.5.7-.1.3-.2.5-.2.8h4.5c.1-.3 0-.6-.1-.8zM37.8 66.2c-.6.6-1.5.9-2.7.9-.4 0-.7 0-1.1-.1s-.7-.2-1-.4c-.3-.2-.6-.4-.8-.7s-.3-.6-.3-1.1h1.3c0 .2.1.4.2.6.1.2.3.3.5.4.2.1.4.2.6.2s.5.1.7.1c.4 0 .8-.1 1.1-.2.3-.1.5-.3.7-.6.2-.3.3-.6.4-.9s.1-.8.1-1.2v-.5c-.2.5-.6.8-1 1.1-.5.2-1 .3-1.5.3-.6 0-1.1-.1-1.5-.3-.4-.2-.8-.5-1.1-.8-.3-.4-.5-.8-.7-1.2-.1-.5-.2-1-.2-1.5s.1-.9.2-1.4c.1-.5.3-.9.6-1.3s.6-.7 1.1-1 1-.4 1.7-.4c.5 0 .9.1 1.3.3s.7.5 1 1v-1.1h1.2v7.1c.1 1.2-.2 2.1-.8 2.7zm-1.6-3.4c.3-.2.5-.4.7-.7.2-.3.3-.6.4-1s.1-.7.1-1.1c0-.3 0-.7-.1-1s-.2-.6-.4-.9c-.2-.3-.4-.5-.7-.6-.3-.2-.6-.2-1-.2s-.8.1-1 .2-.5.4-.7.6c-.2.3-.3.6-.4.9s-.1.7-.1 1.1c0 .4 0 .7.1 1 .1.4.2.7.4 1 .2.3.4.5.7.7.3.2.6.3 1 .3s.7-.2 1-.3zM47.5 64c-.2.1-.5.2-.9.2-.3 0-.6-.1-.8-.3-.2-.2-.3-.5-.3-.9-.4.4-.8.7-1.2.9-.5.2-1 .3-1.5.3-.4 0-.7 0-1-.1-.3-.1-.6-.2-.8-.4-.2-.2-.4-.4-.5-.7-.1-.3-.2-.6-.2-1s.1-.8.2-1.1c.2-.3.3-.5.6-.7.2-.2.5-.3.8-.4.3-.1.6-.2 1-.2.3-.1.7-.1 1-.2.3 0 .6-.1.8-.2l.6-.3c.1-.1.2-.3.2-.5 0-.3-.1-.5-.2-.7-.1-.2-.2-.3-.4-.4s-.4-.2-.6-.2h-.6c-.5 0-1 .1-1.3.3-.4.2-.6.6-.6 1.2h-1.3c0-.5.1-.9.3-1.2.2-.3.4-.6.7-.8.3-.2.6-.4 1-.4.4-.1.8-.1 1.2-.1.3 0 .7 0 1 .1.3 0 .7.2.9.3.3.2.5.4.7.7.2.3.3.6.3 1.1v4c0 .3 0 .5.1.7 0 .1.2.2.4.2.1 0 .2 0 .4-.1v.9zm-2.1-4l-.6.3c-.3.1-.5.1-.8.1s-.6.1-.9.1c-.3 0-.5.1-.8.2s-.4.2-.6.4c-.1.2-.2.4-.2.8 0 .2 0 .4.1.5s.2.3.3.4c.1.1.3.2.5.2s.4.1.6.1c.4 0 .8-.1 1.1-.2s.5-.3.7-.4c.2-.2.3-.4.4-.6s.1-.4.1-.6V60zM52 56.3v1.1h-1.5v5.2c0 .1.1.2.1.2.1 0 .2.1.3.1H52V64h-1c-.3 0-.6 0-.8-.1-.2 0-.4-.1-.6-.2-.1-.1-.3-.3-.3-.5-.1-.2-.1-.5-.1-.9v-4.9h-1.3v-1.1h1.3V54h1.3v2.3H52zM58.9 63.6c-.6.4-1.3.7-2.2.7-.6 0-1.2-.1-1.6-.3-.5-.2-.8-.5-1.1-.8-.3-.4-.5-.8-.7-1.3-.2-.5-.2-1-.3-1.6 0-.6.1-1.1.3-1.6.2-.5.4-.9.8-1.3s.7-.6 1.2-.8c.4-.2.9-.3 1.5-.3.7 0 1.3.1 1.7.4s.8.6 1.1 1.1c.3.4.5.9.6 1.4.1.5.1 1 .1 1.5h-5.8c0 .3 0 .7.1 1s.2.6.4.8c.2.2.5.4.8.6.3.1.7.2 1.1.2.5 0 1-.1 1.3-.4.3-.2.6-.6.7-1.1H60c-.2.7-.5 1.3-1.1 1.8zm-.3-5c-.1-.3-.3-.5-.5-.7-.2-.2-.4-.3-.7-.5-.3-.1-.6-.2-.9-.2-.3 0-.6.1-.9.2-.3.1-.5.3-.7.5-.2.2-.3.4-.5.7-.1.3-.2.5-.2.8h4.5c0-.3 0-.6-.1-.8zM67.1 64.1v-1c-.2.4-.5.7-1 .9-.5.2-.9.3-1.5.3s-1.1-.1-1.6-.3c-.4-.2-.8-.5-1.1-.9s-.5-.8-.7-1.3c-.1-.5-.2-1-.2-1.6 0-.5.1-1.1.2-1.6s.4-.9.7-1.3c.3-.4.7-.7 1.1-.9s1-.3 1.6-.3c.2 0 .4 0 .6.1.2 0 .5.1.7.2.2.1.4.2.7.4.2.2.4.3.5.6v-4h1.3v10.7h-1.3zm-4.6-2.8c.1.3.2.7.4.9.2.3.4.5.8.6.3.2.7.2 1.1.2.4 0 .8-.1 1.1-.3s.5-.4.7-.7c.2-.3.3-.6.4-.9.1-.4.1-.7.1-1.1 0-.4 0-.7-.1-1.1-.1-.4-.2-.7-.4-.9-.2-.3-.4-.5-.8-.7s-.7-.2-1.1-.2c-.4 0-.8.1-1.1.3s-.5.4-.7.7c-.2.3-.3.6-.4 1s-.1.7-.1 1.1c0 .4 0 .8.1 1.1zM79.4 53.3c1.1 0 1.9.3 2.5.8.6.6.8 1.3.8 2.3s-.3 1.8-.8 2.3c-.6.6-1.4.8-2.5.8h-3.3v4.4h-1.4V53.3h4.7zm-.5 5.2c.8 0 1.4-.2 1.8-.5s.6-.8.6-1.5-.2-1.1-.6-1.5c-.4-.3-1-.5-1.8-.5h-2.8v3.9h2.8zM84 58.6c.2-.5.4-.9.7-1.3.3-.4.7-.7 1.2-.9.5-.2 1-.3 1.6-.3.6 0 1.2.1 1.6.3s.9.5 1.2.9c.3.4.6.8.7 1.3s.2 1 .2 1.6-.1 1.1-.2 1.6c-.2.5-.4.9-.7 1.3-.3.4-.7.6-1.2.9s-1 .3-1.6.3c-.6 0-1.1-.1-1.6-.3-.5-.2-.9-.5-1.2-.9-.3-.4-.6-.8-.7-1.3-.2-.5-.2-1-.2-1.6s.1-1.1.2-1.6zm1.3 2.8c.1.4.3.7.5.9s.5.4.8.6.6.2.9.2.6-.1.9-.2.6-.3.8-.6.4-.5.5-.9.2-.8.2-1.3-.1-.9-.2-1.3-.3-.7-.5-.9-.5-.4-.8-.6-.6-.2-.9-.2-.6.1-.9.2-.6.3-.8.6-.4.6-.5.9c-.1.4-.2.8-.2 1.3.1.6.1 1 .2 1.3zM99.2 64.1l-1.6-6.2-1.6 6.2h-1.4l-2.5-7.8h1.4l1.8 6.3 1.6-6.3h1.4l1.6 6.3 1.7-6.3h1.3l-2.5 7.8h-1.2zM109.7 63.6c-.6.4-1.3.7-2.2.7-.6 0-1.2-.1-1.6-.3-.5-.2-.8-.5-1.1-.8-.3-.4-.5-.8-.7-1.3-.2-.5-.2-1-.3-1.6 0-.6.1-1.1.3-1.6.2-.5.4-.9.8-1.3s.7-.6 1.2-.8c.4-.2.9-.3 1.5-.3.7 0 1.3.1 1.7.4s.8.6 1.1 1.1c.3.4.5.9.6 1.4.1.5.1 1 .1 1.5h-5.8c0 .3 0 .7.1 1s.2.6.4.8c.2.2.5.4.8.6.3.1.7.2 1.1.2.5 0 1-.1 1.3-.4.3-.2.6-.6.7-1.1h1.3c-.4.7-.7 1.3-1.3 1.8zm-.3-5c-.1-.3-.3-.5-.5-.7-.2-.2-.4-.3-.7-.5-.3-.1-.6-.2-.9-.2-.3 0-.6.1-.9.2-.3.1-.5.3-.7.5-.2.2-.3.4-.5.7-.1.3-.2.5-.2.8h4.5c.1-.3 0-.6-.1-.8zM113.4 56.3v1.6c.3-.6.7-1.1 1.1-1.4.5-.3 1-.4 1.7-.4v1.3c-.5 0-.9.1-1.3.2s-.7.3-.9.6c-.2.3-.4.6-.5 1s-.1.8-.1 1.3V64h-1.3v-7.8h1.3zM121.2 58.6c.2-.5.4-.9.7-1.3.3-.4.7-.7 1.2-.9.5-.2 1-.3 1.6-.3.6 0 1.2.1 1.6.3s.9.5 1.2.9c.3.4.6.8.7 1.3s.2 1 .2 1.6-.1 1.1-.2 1.6c-.2.5-.4.9-.7 1.3-.3.4-.7.6-1.2.9s-1 .3-1.6.3c-.6 0-1.1-.1-1.6-.3-.5-.2-.9-.5-1.2-.9-.3-.4-.6-.8-.7-1.3-.2-.5-.2-1-.2-1.6s.1-1.1.2-1.6zm1.3 2.8c.1.4.3.7.5.9s.5.4.8.6.6.2.9.2.6-.1.9-.2.6-.3.8-.6.4-.5.5-.9.2-.8.2-1.3-.1-.9-.2-1.3-.3-.7-.5-.9-.5-.4-.8-.6-.6-.2-.9-.2-.6.1-.9.2-.6.3-.8.6-.4.6-.5.9c-.1.4-.2.8-.2 1.3.1.6.1 1 .2 1.3zM129.3 57.4v-1.1h1.3v-1.2c0-.6.2-1.1.5-1.4.4-.3.9-.5 1.6-.5h.4c.2 0 .3 0 .4.1v1.1c-.1 0-.2-.1-.4-.1h-.4c-.3 0-.6.1-.7.2-.2.1-.3.4-.3.7v1.1h1.5v1.1h-1.5V64h-1.3v-6.6h-1.1zM6.7 81.3L10.9 92H9.3l-1.2-3.2H3.6L2.4 92H.9l4.2-10.7h1.6zm1 6.3l-1.8-5-1.8 5h3.6zM16.9 92.1v-1.2c-.3.5-.6.8-1 1.1-.4.2-.9.3-1.5.3-.5 0-.9-.1-1.3-.2-.3-.1-.6-.3-.8-.6-.2-.2-.4-.5-.4-.9-.1-.3-.1-.7-.1-1.1v-5.1H13v5.2c0 .5.1.9.4 1.1.3.3.7.4 1.2.4.4 0 .7-.1 1-.2.3-.1.5-.3.7-.5.2-.2.3-.5.4-.8s.1-.6.1-1v-4.4h1.3V92h-1.2zM25.9 94.2c-.6.6-1.5.9-2.7.9-.4 0-.7 0-1.1-.1s-.7-.2-1-.4c-.3-.2-.6-.4-.8-.7s-.3-.6-.3-1.1h1.3c0 .2.1.4.2.6.1.2.3.3.5.4.2.1.4.2.6.2s.5.1.7.1c.4 0 .8-.1 1.1-.2.3-.1.5-.3.7-.6.2-.3.3-.6.4-.9s.1-.8.1-1.2v-.5c-.2.5-.6.8-1 1.1-.4.2-.9.3-1.4.3-.6 0-1.1-.1-1.5-.3-.4-.2-.8-.5-1.1-.8-.3-.4-.5-.8-.7-1.2-.1-.5-.2-1-.2-1.5s.1-.9.2-1.4c.1-.5.3-.9.6-1.3s.6-.7 1.1-1c.5-.3 1-.4 1.7-.4.5 0 .9.1 1.4.3.4.2.7.5 1 1v-1.1h1.2v7.1c-.2 1.2-.4 2.1-1 2.7zm-1.7-3.4c.3-.2.5-.4.7-.7.2-.3.3-.6.4-1 .1-.4.1-.7.1-1.1 0-.3 0-.7-.1-1s-.2-.6-.4-.9c-.2-.3-.4-.5-.7-.6-.3-.2-.6-.2-1-.2s-.8.1-1.1.2-.5.4-.7.6-.3.6-.4.9 0 .7 0 1.1c0 .4 0 .7.1 1 .1.4.2.7.4 1s.4.5.7.7c.3.2.6.3 1.1.3s.7-.2.9-.3zM29.9 84.3v1.1c.6-.9 1.4-1.3 2.5-1.3.5 0 .9.1 1.3.3s.7.5.8 1c.3-.4.6-.7 1-1s.9-.3 1.4-.3c.4 0 .7 0 1.1.1s.6.2.8.4c.2.2.4.4.5.7.1.3.2.6.2 1V92h-1.3v-5c0-.2 0-.5-.1-.7s-.1-.4-.2-.5c-.1-.2-.3-.3-.5-.4s-.4-.1-.8-.1c-.6 0-1.1.2-1.5.5-.4.4-.5.8-.5 1.4V92h-1.3v-5c0-.2 0-.5-.1-.7s-.1-.4-.2-.5l-.4-.4c-.2-.1-.4-.1-.7-.1-.4 0-.7.1-1 .2s-.5.3-.6.5c-.2.2-.3.4-.4.7-.1.2-.1.4-.1.6v4.8h-1.3v-7.8h1.4zM46.9 91.6c-.6.4-1.3.7-2.2.7-.6 0-1.2-.1-1.6-.3-.5-.2-.8-.5-1.1-.8-.3-.4-.5-.8-.7-1.3-.2-.5-.2-1-.3-1.6 0-.6.1-1.1.3-1.6.2-.5.4-.9.8-1.3s.7-.6 1.2-.8c.4-.2.9-.3 1.5-.3.7 0 1.3.1 1.7.4s.8.6 1.1 1.1c.3.4.5.9.6 1.4.1.5.1 1 .1 1.5h-5.8c0 .3 0 .7.1 1s.2.6.4.8c.2.2.5.4.8.6.3.1.7.2 1.1.2.5 0 1-.1 1.3-.4.3-.2.6-.6.7-1.1h1.3c-.3.7-.7 1.3-1.3 1.8zm-.3-5c-.1-.3-.3-.5-.5-.7-.2-.2-.4-.3-.7-.5-.3-.1-.6-.2-.9-.2-.3 0-.6.1-.9.2-.3.1-.5.3-.7.5-.2.2-.3.4-.5.7-.1.3-.2.5-.2.8h4.5c.1-.3.1-.6-.1-.8zM50.7 84.3v1.2c.5-.9 1.4-1.4 2.5-1.4.5 0 .9.1 1.3.2.3.1.6.3.8.6s.4.5.4.9c.1.3.1.7.1 1.1V92h-1.3v-5.2c0-.5-.1-.9-.4-1.1-.3-.3-.7-.4-1.2-.4-.4 0-.7.1-1 .2s-.5.3-.7.5c-.2.2-.3.5-.4.8-.1.3-.1.6-.1 1v4.4h-1.3v-7.8h1.3zM61.2 84.3v1.1h-1.5v5.2c0 .1.1.2.1.2.1 0 .2.1.3.1h1.1V92h-1c-.3 0-.6 0-.8-.1-.2 0-.4-.1-.6-.2-.1-.1-.3-.3-.3-.5-.1-.2-.1-.5-.1-.9v-4.9H57v-1.1h1.3V82h1.3v2.3h1.6zM68.1 91.6c-.6.4-1.3.7-2.2.7-.6 0-1.2-.1-1.6-.3-.5-.2-.8-.5-1.1-.8-.3-.4-.5-.8-.7-1.3-.2-.5-.2-1-.3-1.6 0-.6.1-1.1.3-1.6.2-.5.4-.9.8-1.3s.7-.6 1.2-.8c.4-.2.9-.3 1.5-.3.7 0 1.3.1 1.7.4s.8.6 1.1 1.1c.3.4.5.9.6 1.4.1.5.1 1 .1 1.5h-5.8c0 .3 0 .7.1 1s.2.6.4.8c.2.2.5.4.8.6.3.1.7.2 1.1.2.5 0 1-.1 1.3-.4.3-.2.6-.6.7-1.1h1.3c-.4.7-.8 1.3-1.3 1.8zm-.3-5c-.1-.3-.3-.5-.5-.7-.2-.2-.4-.3-.7-.5-.3-.1-.6-.2-.9-.2-.3 0-.6.1-.9.2-.3.1-.5.3-.7.5-.2.2-.3.4-.5.7-.1.3-.2.5-.2.8H68c-.1-.3-.1-.6-.2-.8zM76.3 92.1v-1c-.2.4-.5.7-1 .9-.5.2-.9.3-1.5.3s-1.1-.1-1.6-.3c-.4-.2-.8-.5-1.1-.9s-.5-.8-.7-1.3c-.1-.5-.2-1-.2-1.6 0-.5.1-1.1.2-1.6s.4-.9.7-1.3c.3-.4.7-.7 1.1-.9s1-.3 1.6-.3c.2 0 .4 0 .6.1.2 0 .5.1.7.2.2.1.4.2.7.4.2.2.4.3.5.6v-4h1.3v10.7h-1.3zm-4.6-2.8c.1.3.2.7.4.9.2.3.4.5.8.6.3.2.7.2 1.1.2.4 0 .8-.1 1.1-.3s.5-.4.7-.7c.2-.3.3-.6.4-.9.1-.4.1-.7.1-1.1 0-.4 0-.7-.1-1.1-.1-.4-.2-.7-.4-.9-.2-.3-.4-.5-.8-.7s-.7-.2-1.1-.2c-.4 0-.8.1-1.1.3s-.5.4-.7.7c-.2.3-.3.6-.4 1s-.1.7-.1 1.1c0 .4 0 .8.1 1.1zM88.9 81.3c1 0 1.8.2 2.4.8s.9 1.2.9 2.1c0 .7-.1 1.2-.4 1.7-.3.5-.8.8-1.4 1 .3.1.6.2.8.3.2.1.4.3.5.5.1.2.2.4.3.7.1.2.1.5.1.8v.8c0 .3 0 .5.1.8 0 .3.1.5.2.7l.3.6H91c-.1-.1-.2-.3-.2-.5s-.1-.4-.1-.6v-.8c0-.3 0-.5-.1-.8 0-.3-.1-.5-.2-.7l-.3-.6c-.1-.2-.3-.3-.5-.4-.2-.1-.5-.2-.8-.2h-3.5v4.6h-1.4V81.3h5zm.3 4.9c.3-.1.6-.1.8-.3.2-.1.4-.3.5-.6.1-.2.2-.6.2-1 0-.5-.2-1-.5-1.3s-.8-.5-1.5-.5h-3.5v3.7h3c.4.1.7.1 1 0zM99.5 91.6c-.6.4-1.3.7-2.2.7-.6 0-1.2-.1-1.6-.3-.5-.2-.8-.5-1.1-.8-.3-.4-.5-.8-.7-1.3-.2-.5-.2-1-.3-1.6 0-.6.1-1.1.3-1.6.2-.5.4-.9.8-1.3s.7-.6 1.2-.8c.4-.2.9-.3 1.5-.3.7 0 1.3.1 1.7.4s.8.6 1.1 1.1c.3.4.5.9.6 1.4.1.5.1 1 .1 1.5h-5.8c0 .3 0 .7.1 1s.2.6.4.8c.2.2.5.4.8.6.3.1.7.2 1.1.2.5 0 1-.1 1.3-.4.3-.2.6-.6.7-1.1h1.3c-.4.7-.8 1.3-1.3 1.8zm-.3-5c-.1-.3-.3-.5-.5-.7-.2-.2-.4-.3-.7-.5-.3-.1-.6-.2-.9-.2-.3 0-.6.1-.9.2-.3.1-.5.3-.7.5-.2.2-.3.4-.5.7-.1.3-.2.5-.2.8h4.5c0-.3 0-.6-.1-.8zM108.9 92c-.2.1-.5.2-.9.2-.3 0-.6-.1-.8-.3-.2-.2-.3-.5-.3-.9-.4.4-.8.7-1.2.9-.5.2-1 .3-1.5.3-.4 0-.7 0-1-.1-.3-.1-.6-.2-.8-.4-.2-.2-.4-.4-.5-.7-.1-.3-.2-.6-.2-1s.1-.8.2-1.1c.2-.3.3-.5.6-.7.2-.2.5-.3.8-.4.3-.1.6-.2 1-.2.3-.1.7-.1 1-.2.3 0 .6-.1.8-.2l.6-.3c.1-.1.2-.3.2-.5 0-.3-.1-.5-.2-.7-.1-.2-.2-.3-.4-.4s-.4-.2-.6-.2h-.6c-.5 0-1 .1-1.3.3-.4.2-.6.6-.6 1.2h-1.3c0-.5.1-.9.3-1.2.2-.3.4-.6.7-.8.3-.2.6-.4 1-.4.4-.1.8-.1 1.2-.1.3 0 .7 0 1 .1.3 0 .7.2.9.3.3.2.5.4.7.7.2.3.3.6.3 1.1v4c0 .3 0 .5.1.7 0 .1.2.2.4.2.1 0 .2 0 .4-.1v.9zm-2.1-4l-.6.3c-.3.1-.5.1-.8.1s-.6.1-.9.1c-.3 0-.5.1-.8.2s-.4.2-.6.4c-.1.2-.2.4-.2.8 0 .2 0 .4.1.5s.2.3.3.4c.1.1.3.2.5.2s.4.1.6.1c.4 0 .8-.1 1.1-.2s.5-.3.7-.4c.2-.2.3-.4.4-.6s.1-.4.1-.6V88zM111.4 81.3V92h-1.3V81.3h1.3zM113.5 82.9v-1.6h1.3v1.6h-1.3zm1.3 1.4v7.8h-1.3v-7.8h1.3zM120.1 84.3v1.1h-1.5v5.2c0 .1.1.2.1.2.1 0 .2.1.3.1h1.1V92h-1c-.3 0-.6 0-.8-.1-.2 0-.4-.1-.6-.2-.1-.1-.3-.3-.3-.5-.1-.2-.1-.5-.1-.9v-4.9H116v-1.1h1.3V82h1.3v2.3h1.5zM124.5 93.1c-.1.4-.3.7-.4 1-.1.3-.3.5-.5.6-.2.2-.4.3-.6.4-.2.1-.5.1-.7.1h-.5c-.1 0-.3-.1-.4-.1v-1.2c.1 0 .2.1.4.1.1 0 .3.1.4.1.3 0 .5-.1.7-.2.2-.1.3-.3.4-.5l.5-1.3-3.1-7.7h1.4l2.3 6.3 2.2-6.3h1.3l-3.4 8.7zM9.6 109.3v1.2h-6v3.4h5.6v1.2H3.6v3.7h6v1.2H2.2v-10.7h7.4zM12.4 112.3v1.2c.5-.9 1.4-1.4 2.5-1.4.5 0 .9.1 1.3.2.3.1.6.3.8.6s.4.5.4.9c.1.3.1.7.1 1.1v5.1h-1.3v-5.2c0-.5-.1-.9-.4-1.1-.3-.3-.7-.4-1.2-.4-.4 0-.7.1-1 .2s-.5.3-.7.5c-.2.2-.3.5-.4.8s-.1.6-.1 1v4.4h-1.3v-7.8h1.3zM21.6 120.1l-2.9-7.8h1.4l2.2 6.5 2.1-6.5h1.3l-2.8 7.8h-1.3zM27.1 110.9v-1.6h1.3v1.6h-1.3zm1.2 1.4v7.8H27v-7.8h1.3zM31.5 112.3v1.6c.3-.6.7-1.1 1.1-1.4.4-.3 1-.4 1.7-.4v1.3c-.5 0-.9.1-1.3.2s-.7.3-.9.6c-.2.3-.4.6-.5 1s-.2.8-.2 1.3v3.5h-1.3v-7.8h1.4zM34.9 114.6c.2-.5.4-.9.7-1.3.3-.4.7-.7 1.2-.9.5-.2 1-.3 1.6-.3.6 0 1.2.1 1.6.3s.9.5 1.2.9c.3.4.6.8.7 1.3s.2 1 .2 1.6-.1 1.1-.2 1.6c-.2.5-.4.9-.7 1.3-.3.4-.7.6-1.2.9s-1 .3-1.6.3c-.6 0-1.1-.1-1.6-.3-.5-.2-.9-.5-1.2-.9-.3-.4-.6-.8-.7-1.3-.2-.5-.2-1-.2-1.6s0-1.1.2-1.6zm1.3 2.8c.1.4.3.7.5.9s.5.4.8.6.6.2.9.2.6-.1.9-.2.6-.3.8-.6.4-.5.5-.9.2-.8.2-1.3-.1-.9-.2-1.3-.3-.7-.5-.9-.5-.4-.8-.6-.6-.2-.9-.2-.6.1-.9.2-.6.3-.8.6-.4.6-.5.9c-.1.4-.2.8-.2 1.3 0 .6 0 1 .2 1.3zM44.9 112.3v1.2c.5-.9 1.4-1.4 2.5-1.4.5 0 .9.1 1.3.2.3.1.6.3.8.6s.4.5.4.9c.1.3.1.7.1 1.1v5.1h-1.3v-5.2c0-.5-.1-.9-.4-1.1-.3-.3-.7-.4-1.2-.4-.4 0-.7.1-1 .2s-.5.3-.7.5c-.2.2-.3.5-.4.8-.1.3-.1.6-.1 1v4.4h-1.3v-7.8h1.3zM53.2 112.3v1.1c.6-.9 1.4-1.3 2.5-1.3.5 0 .9.1 1.3.3s.7.5.8 1c.3-.4.6-.7 1-1s.9-.3 1.4-.3c.4 0 .7 0 1.1.1s.6.2.8.4c.2.2.4.4.5.7.1.3.2.6.2 1v5.7h-1.3v-5c0-.2 0-.5-.1-.7s-.1-.4-.2-.5c-.1-.2-.3-.3-.5-.4s-.4-.1-.8-.1c-.6 0-1.1.2-1.5.5-.4.4-.5.8-.5 1.4v4.8h-1.3v-5c0-.2 0-.5-.1-.7s-.1-.4-.2-.5l-.4-.4c-.2-.1-.4-.1-.7-.1-.4 0-.7.1-1 .2s-.5.3-.6.5c-.2.2-.3.4-.4.7s-.1.4-.1.6v4.8H52v-7.8h1.2zM70.3 119.6c-.6.4-1.3.7-2.2.7-.6 0-1.2-.1-1.6-.3-.5-.2-.8-.5-1.1-.8-.3-.4-.5-.8-.7-1.3-.2-.5-.2-1-.3-1.6 0-.6.1-1.1.3-1.6.2-.5.4-.9.8-1.3s.7-.6 1.2-.8c.4-.2.9-.3 1.5-.3.7 0 1.3.1 1.7.4s.8.6 1.1 1.1c.3.4.5.9.6 1.4.1.5.1 1 .1 1.5h-5.8c0 .3 0 .7.1 1s.2.6.4.8c.2.2.5.4.8.6.3.1.7.2 1.1.2.5 0 1-.1 1.3-.4.3-.2.6-.6.7-1.1h1.3c-.4.7-.7 1.3-1.3 1.8zm-.3-5c-.1-.3-.3-.5-.5-.7-.2-.2-.4-.3-.7-.5-.3-.1-.6-.2-.9-.2-.3 0-.6.1-.9.2-.3.1-.5.3-.7.5-.2.2-.3.4-.5.7-.1.3-.2.5-.2.8h4.5c.1-.3 0-.6-.1-.8zM74.1 112.3v1.2c.5-.9 1.4-1.4 2.5-1.4.5 0 .9.1 1.3.2.3.1.6.3.8.6s.4.5.4.9c.1.3.1.7.1 1.1v5.1H78v-5.2c0-.5-.1-.9-.4-1.1-.3-.3-.7-.4-1.2-.4-.4 0-.7.1-1 .2s-.5.3-.7.5c-.2.2-.3.5-.4.8-.1.3-.1.6-.1 1v4.4h-1.3v-7.8h1.2zM84.5 112.3v1.1H83v5.2c0 .1.1.2.1.2.1 0 .2.1.3.1h1.1v1.1h-1c-.3 0-.6 0-.8-.1-.2 0-.4-.1-.6-.2-.1-.1-.3-.3-.3-.5-.1-.2-.1-.5-.1-.9v-4.9h-1.3v-1.1h1.3V110H83v2.3h1.5z"/></g></svg>