<svg xmlns="http://www.w3.org/2000/svg" viewBox="0 0 216 70"><style>.st11{fill:#00fcff}</style><linearGradient id="SVGID_1_" gradientUnits="userSpaceOnUse" x1="-40.5" y1="55.8" x2="221.581" y2="55.8" gradientTransform="matrix(1 0 0 -1 0 72)"><stop offset="0" stop-color="#00d1ff"/><stop offset=".063" stop-color="#00ddfd"/><stop offset=".192" stop-color="#00f0f9"/><stop offset=".326" stop-color="#00fbf7"/><stop offset=".468" stop-color="#00fff6"/><stop offset="1" stop-color="#67ffdd"/></linearGradient><path d="M10.6 1.8h6.8l10.2 28.8h-6.5l-1.9-5.9H8.6l-2 5.9H.3L10.6 1.8zm-.4 17.9h7.4L14 8.4l-3.8 11.3z" fill="url(#SVGID_1_)"/><linearGradient id="SVGID_2_" gradientUnits="userSpaceOnUse" x1="-40.5" y1="48.1" x2="221.581" y2="48.1" gradientTransform="matrix(1 0 0 -1 0 72)"><stop offset="0" stop-color="#00d1ff"/><stop offset=".063" stop-color="#00ddfd"/><stop offset=".192" stop-color="#00f0f9"/><stop offset=".326" stop-color="#00fbf7"/><stop offset=".468" stop-color="#00fff6"/><stop offset="1" stop-color="#67ffdd"/></linearGradient><path d="M48.7 11.6c1.7 1.8 2.6 4.5 2.6 8.1 0 3.8-.8 6.6-2.5 8.6s-3.9 2.9-6.6 2.9c-1.7 0-3.1-.4-4.2-1.3-.6-.5-1.2-1.2-1.8-2.1V39h-5.5V9.3H36v3.1c.6-.9 1.2-1.7 1.9-2.2 1.2-1 2.7-1.4 4.4-1.4 2.6 0 4.7.9 6.4 2.8zm-4.3 4c-.8-1.3-2-1.9-3.7-1.9-2 0-3.4 1-4.2 2.9-.4 1-.6 2.3-.6 3.9 0 2.5.7 4.2 2 5.2.8.6 1.7.9 2.8.9 1.6 0 2.8-.6 3.6-1.8s1.2-2.8 1.2-4.8c.1-1.7-.3-3.2-1.1-4.4z" fill="url(#SVGID_2_)"/><linearGradient id="SVGID_3_" gradientUnits="userSpaceOnUse" x1="-40.5" y1="48.1" x2="221.581" y2="48.1" gradientTransform="matrix(1 0 0 -1 0 72)"><stop offset="0" stop-color="#00d1ff"/><stop offset=".063" stop-color="#00ddfd"/><stop offset=".192" stop-color="#00f0f9"/><stop offset=".326" stop-color="#00fbf7"/><stop offset=".468" stop-color="#00fff6"/><stop offset="1" stop-color="#67ffdd"/></linearGradient><path d="M73.2 11.6c1.7 1.8 2.6 4.5 2.6 8.1 0 3.8-.8 6.6-2.5 8.6s-3.9 2.9-6.6 2.9c-1.7 0-3.1-.4-4.2-1.3-.6-.5-1.2-1.2-1.8-2.1V39h-5.5V9.3h5.3v3.1c.6-.9 1.2-1.7 1.9-2.2 1.2-1 2.7-1.4 4.4-1.4 2.5 0 4.6.9 6.4 2.8zm-4.3 4c-.8-1.3-2-1.9-3.7-1.9-2 0-3.4 1-4.2 2.9-.4 1-.6 2.3-.6 3.9 0 2.5.7 4.2 2 5.2.8.6 1.7.9 2.8.9 1.6 0 2.8-.6 3.6-1.8S70 22 70 20c0-1.7-.4-3.2-1.1-4.4z" fill="url(#SVGID_3_)"/><linearGradient id="SVGID_4_" gradientUnits="userSpaceOnUse" x1="-40.5" y1="55.8" x2="221.581" y2="55.8" gradientTransform="matrix(1 0 0 -1 0 72)"><stop offset="0" stop-color="#00d1ff"/><stop offset=".063" stop-color="#00ddfd"/><stop offset=".192" stop-color="#00f0f9"/><stop offset=".326" stop-color="#00fbf7"/><stop offset=".468" stop-color="#00fff6"/><stop offset="1" stop-color="#67ffdd"/></linearGradient><path d="M85.4 30.6h-5.6V1.8h5.6v28.8z" fill="url(#SVGID_4_)"/><linearGradient id="SVGID_5_" gradientUnits="userSpaceOnUse" x1="-40.5" y1="55.9" x2="221.581" y2="55.9" gradientTransform="matrix(1 0 0 -1 0 72)"><stop offset="0" stop-color="#00d1ff"/><stop offset=".063" stop-color="#00ddfd"/><stop offset=".192" stop-color="#00f0f9"/><stop offset=".326" stop-color="#00fbf7"/><stop offset=".468" stop-color="#00fff6"/><stop offset="1" stop-color="#67ffdd"/></linearGradient><path d="M96.5 6.7h-5.6V1.6h5.6v5.1zm-5.6 2.6h5.6v21.3h-5.6V9.3z" fill="url(#SVGID_5_)"/><linearGradient id="SVGID_6_" gradientUnits="userSpaceOnUse" x1="-40.5" y1="51.8" x2="221.581" y2="51.8" gradientTransform="matrix(1 0 0 -1 0 72)"><stop offset="0" stop-color="#00d1ff"/><stop offset=".063" stop-color="#00ddfd"/><stop offset=".192" stop-color="#00f0f9"/><stop offset=".326" stop-color="#00fbf7"/><stop offset=".468" stop-color="#00fff6"/><stop offset="1" stop-color="#67ffdd"/></linearGradient><path d="M114.6 16.9c-.1-.8-.4-1.5-.8-2.1-.6-.9-1.6-1.3-2.9-1.3-1.9 0-3.2.9-3.9 2.8-.4 1-.5 2.3-.5 3.9s.2 2.8.5 3.8c.7 1.8 1.9 2.7 3.8 2.7 1.3 0 2.2-.4 2.8-1.1.5-.7.9-1.6 1-2.7h5.7c-.1 1.7-.7 3.3-1.8 4.8-1.7 2.4-4.3 3.7-7.8 3.7s-5.9-1-7.6-3c-1.6-2-2.4-4.7-2.4-7.9 0-3.7.9-6.5 2.7-8.5 1.8-2 4.2-3 7.4-3 2.7 0 4.9.6 6.6 1.8s2.7 3.3 3 6.3h-5.8v-.2z" fill="url(#SVGID_6_)"/><linearGradient id="SVGID_7_" gradientUnits="userSpaceOnUse" x1="-40.5" y1="52" x2="221.581" y2="52" gradientTransform="matrix(1 0 0 -1 0 72)"><stop offset="0" stop-color="#00d1ff"/><stop offset=".063" stop-color="#00ddfd"/><stop offset=".192" stop-color="#00f0f9"/><stop offset=".326" stop-color="#00fbf7"/><stop offset=".468" stop-color="#00fff6"/><stop offset="1" stop-color="#67ffdd"/></linearGradient><path d="M132.6 17.6c1-.1 1.8-.3 2.2-.5.8-.3 1.2-.9 1.2-1.6 0-.9-.3-1.5-.9-1.8-.6-.3-1.5-.5-2.7-.5-1.3 0-2.3.3-2.8 1-.4.5-.7 1.1-.8 2h-5.4c.1-1.9.6-3.4 1.6-4.6 1.5-1.9 4-2.8 7.6-2.8 2.3 0 4.4.5 6.2 1.4s2.7 2.7 2.7 5.2v12.3c0 .7.1 1.2.3 1.5s.5.5.8.6v.8h-6.1c-.2-.4-.3-.8-.4-1.2s-.1-.8-.2-1.3c-.8.8-1.7 1.5-2.7 2.1-1.2.7-2.6 1-4.1 1-1.9 0-3.5-.5-4.8-1.7s-1.9-2.7-1.9-4.7c0-2.6 1-4.5 3-5.7 1.1-.6 2.8-1.1 4.9-1.4l2.3-.1zm3.4 2.6c-.4.2-.7.4-1.1.5-.4.1-.9.3-1.5.4l-1.3.2c-1.2.2-2 .5-2.6.8-.9.5-1.3 1.3-1.3 2.4 0 1 .3 1.6.8 2.1.5.4 1.2.6 2 .6 1.2 0 2.3-.4 3.4-1.1s1.6-2 1.6-3.8v-2.1z" fill="url(#SVGID_7_)"/><linearGradient id="SVGID_8_" gradientUnits="userSpaceOnUse" x1="-40.5" y1="54.844" x2="221.581" y2="54.844" gradientTransform="matrix(1 0 0 -1 0 72)"><stop offset="0" stop-color="#00d1ff"/><stop offset=".063" stop-color="#00ddfd"/><stop offset=".192" stop-color="#00f0f9"/><stop offset=".326" stop-color="#00fbf7"/><stop offset=".468" stop-color="#00fff6"/><stop offset="1" stop-color="#67ffdd"/></linearGradient><path d="M144.2 13.4v-4h3V3.5h5.5v5.9h3.5v4h-3.5v11.2c0 .9.1 1.4.3 1.6s.9.3 2 .3h1.1v4.2l-2.6.1c-2.6.1-4.4-.4-5.4-1.4-.6-.6-.9-1.6-.9-2.9V13.4h-3z" fill="url(#SVGID_8_)"/><linearGradient id="SVGID_9_" gradientUnits="userSpaceOnUse" x1="-40.5" y1="55.9" x2="221.581" y2="55.9" gradientTransform="matrix(1 0 0 -1 0 72)"><stop offset="0" stop-color="#00d1ff"/><stop offset=".063" stop-color="#00ddfd"/><stop offset=".192" stop-color="#00f0f9"/><stop offset=".326" stop-color="#00fbf7"/><stop offset=".468" stop-color="#00fff6"/><stop offset="1" stop-color="#67ffdd"/></linearGradient><path d="M165.4 6.7h-5.6V1.6h5.6v5.1zm-5.6 2.6h5.6v21.3h-5.6V9.3z" fill="url(#SVGID_9_)"/><linearGradient id="SVGID_10_" gradientUnits="userSpaceOnUse" x1="-40.5" y1="52.05" x2="221.581" y2="52.05" gradientTransform="matrix(1 0 0 -1 0 72)"><stop offset="0" stop-color="#00d1ff"/><stop offset=".063" stop-color="#00ddfd"/><stop offset=".192" stop-color="#00f0f9"/><stop offset=".326" stop-color="#00fbf7"/><stop offset=".468" stop-color="#00fff6"/><stop offset="1" stop-color="#67ffdd"/></linearGradient><path d="M188.6 28c-1.8 2.2-4.5 3.3-8.2 3.3s-6.4-1.1-8.2-3.3-2.7-4.9-2.7-8 .9-5.7 2.7-8 4.5-3.4 8.2-3.4 6.4 1.1 8.2 3.4 2.7 4.9 2.7 8-.9 5.8-2.7 8zm-4.5-3.1c.9-1.2 1.3-2.8 1.3-4.9s-.4-3.8-1.3-4.9c-.9-1.2-2.1-1.7-3.8-1.7s-2.9.6-3.8 1.7c-.9 1.2-1.3 2.8-1.3 4.9s.4 3.8 1.3 4.9 2.1 1.7 3.8 1.7 3-.6 3.8-1.7z" fill="url(#SVGID_10_)"/><linearGradient id="SVGID_11_" gradientUnits="userSpaceOnUse" x1="-40.5" y1="52.4" x2="221.581" y2="52.4" gradientTransform="matrix(1 0 0 -1 0 72)"><stop offset="0" stop-color="#00d1ff"/><stop offset=".063" stop-color="#00ddfd"/><stop offset=".192" stop-color="#00f0f9"/><stop offset=".326" stop-color="#00fbf7"/><stop offset=".468" stop-color="#00fff6"/><stop offset="1" stop-color="#67ffdd"/></linearGradient><path d="M212.4 10.5c1.4 1.2 2.1 3.1 2.1 5.7v14.3h-5.7V17.6c0-1.1-.1-2-.4-2.6-.5-1.1-1.6-1.6-3.1-1.6-1.9 0-3.2.8-3.9 2.4-.4.8-.5 1.9-.5 3.2v11.5h-5.6V9.3h5.4v3.1c.7-1.1 1.4-1.9 2-2.4 1.1-.9 2.6-1.3 4.3-1.3 2.3.1 4 .7 5.4 1.8z" fill="url(#SVGID_11_)"/><g><path class="st11" d="M6.7 53.5l4.5 11.4H9.5l-1.2-3.4H3.4l-1.3 3.4H.6L5 53.5h1.7zm1.1 6.7l-1.9-5.3L4 60.2h3.8zM17.7 53.5c1.1 0 1.9.3 2.6.8s.9 1.3.9 2.2c0 .7-.2 1.3-.5 1.8s-.8.9-1.5 1.1c.3.1.6.2.8.3s.4.3.5.5.2.4.3.7.1.5.1.8v.8c0 .3 0 .6.1.8 0 .3.1.5.2.8s.2.5.4.7h-1.7c-.1-.1-.2-.3-.2-.5s-.1-.4-.1-.7v-.8c0-.3 0-.6-.1-.8 0-.3-.1-.5-.2-.8-.1-.2-.2-.5-.3-.7s-.3-.3-.5-.4-.6-.1-1-.1h-3.7v4.9h-1.5V53.5h5.4zm.3 5.2c.3-.1.6-.2.8-.3l.6-.6c.2-.2.2-.6.2-1 0-.6-.2-1-.5-1.4s-.8-.5-1.6-.5h-3.8v4H17c.3-.2.7-.2 1-.2zM30.1 64.8c-.7.3-1.3.4-2 .4-.9 0-1.6-.2-2.3-.5-.7-.3-1.2-.7-1.7-1.3-.5-.5-.8-1.1-1.1-1.8-.2-.7-.4-1.4-.4-2.2s.1-1.6.3-2.4c.2-.8.6-1.4 1-2 .5-.6 1-1 1.7-1.4s1.5-.5 2.4-.5c.6 0 1.2.1 1.8.2.5.1 1 .4 1.5.7a4.283 4.283 0 0 1 1.7 2.9h-1.5c-.1-.4-.2-.8-.4-1.1-.2-.3-.5-.6-.8-.8s-.6-.4-1-.5-.8-.2-1.2-.2c-.7 0-1.3.1-1.8.4-.5.3-.9.6-1.2 1.1-.3.5-.5 1-.7 1.6-.1.6-.2 1.2-.2 1.8s.1 1.2.3 1.7c.2.5.4 1 .8 1.5.3.4.7.8 1.2 1s1 .4 1.7.4c.6 0 1.1-.1 1.6-.3s.8-.5 1.2-.8.6-.7.7-1.2c.2-.5.2-.9.2-1.5h-3.6v-1.3h5v6h-1l-.4-1.4c-.6.8-1.1 1.2-1.8 1.5zM41 64.4c-.6.5-1.4.7-2.3.7-.7 0-1.2-.1-1.7-.3-.5-.2-.9-.5-1.2-.9s-.6-.8-.7-1.4c-.2-.5-.3-1.1-.3-1.7 0-.6.1-1.2.3-1.7s.5-1 .8-1.4.8-.7 1.2-.9c.5-.2 1-.3 1.6-.3.7 0 1.3.2 1.8.5s.9.7 1.2 1.2.5 1 .6 1.5c.1.6.2 1.1.1 1.6h-6.2c0 .4 0 .7.1 1s.3.6.5.9c.2.3.5.5.8.6.3.2.7.2 1.2.2.6 0 1-.1 1.4-.4s.6-.7.7-1.2h1.3c-.2.8-.6 1.5-1.2 2zm-.3-5.3c-.1-.3-.3-.5-.5-.7s-.5-.4-.7-.5c-.3-.1-.6-.2-.9-.2-.4 0-.7.1-1 .2-.3.1-.5.3-.7.5s-.4.5-.5.7c-.1.3-.2.6-.2.9H41l-.3-.9zM51.1 64.9c-.2.1-.6.2-1 .2s-.6-.1-.8-.3-.3-.5-.3-1c-.4.4-.8.8-1.3 1s-1 .3-1.6.3c-.4 0-.7 0-1.1-.1s-.6-.2-.9-.4c-.2-.2-.4-.4-.6-.7-.1-.3-.2-.6-.2-1.1s.1-.9.2-1.2c.2-.3.4-.5.6-.7.3-.2.6-.3.9-.4.3-.1.7-.2 1-.2.4-.1.7-.1 1.1-.2.3 0 .6-.1.9-.2s.5-.2.6-.3.2-.3.2-.6-.1-.5-.2-.7c-.1-.2-.3-.3-.4-.4-.2-.1-.4-.2-.6-.2H47c-.6 0-1.1.1-1.4.3s-.6.6-.6 1.2h-1.4c0-.5.1-.9.3-1.3.2-.4.4-.6.8-.9.3-.2.7-.4 1.1-.5.4-.1.9-.1 1.3-.1s.7 0 1.1.1c.4.1.7.2 1 .3s.5.4.7.7.3.7.3 1.2V63c0 .3 0 .6.1.7 0 .1.2.2.4.2.1 0 .3 0 .4-.1v1.1zm-2.2-4.3c-.2.1-.4.2-.7.3s-.6.1-.9.1c-.3 0-.6.1-.9.1s-.6.1-.8.2c-.2.1-.4.3-.6.5-.2.2-.2.5-.2.8 0 .2 0 .4.1.6.1.2.2.3.4.4.1.1.3.2.5.2s.4.1.6.1c.4 0 .8-.1 1.2-.2.3-.1.6-.3.8-.5s.4-.4.4-.6c.1-.2.1-.4.1-.6v-1.4zM53.6 56.6v1.7c.3-.7.7-1.2 1.2-1.5s1.1-.5 1.8-.4v1.4c-.5 0-1 .1-1.4.2-.4.1-.7.4-.9.7s-.4.6-.5 1-.2.9-.2 1.4v3.7h-1.4v-8.3l1.4.1zM67.1 53.5l4.5 11.4h-1.7l-1.2-3.4h-4.8l-1.3 3.4H61l4.4-11.4h1.7zm1.1 6.7l-1.9-5.3-1.9 5.3h3.8zM73.9 56.6v1.1c.2-.5.6-.8 1.1-1s1-.3 1.6-.3 1.2.1 1.7.4c.5.2.9.6 1.2 1 .3.4.6.9.7 1.4.2.5.2 1.1.2 1.7 0 .6-.1 1.1-.2 1.7-.2.5-.4 1-.7 1.4-.3.4-.7.7-1.2.9-.5.2-1 .3-1.7.3-.2 0-.4 0-.7-.1-.3 0-.5-.1-.7-.2s-.5-.2-.7-.4l-.6-.6v4.3h-1.4V56.6h1.4zm4.9 3c-.1-.4-.3-.7-.5-1s-.5-.5-.8-.7-.7-.3-1.1-.3c-.5 0-.8.1-1.2.3-.3.2-.6.4-.8.7-.2.3-.3.6-.4 1s-.1.8-.1 1.1c0 .4 0 .8.1 1.2s.2.7.5 1 .5.5.8.7.7.3 1.2.3.9-.1 1.2-.3c.3-.2.6-.4.8-.7.2-.3.3-.6.4-1s.1-.8.1-1.2c-.1-.4-.1-.8-.2-1.1zM83.4 56.6v1.1c.2-.5.6-.8 1.1-1s1-.3 1.6-.3 1.2.1 1.7.4c.5.2.9.6 1.2 1 .3.4.6.9.7 1.4.2.5.2 1.1.2 1.7 0 .6-.1 1.1-.2 1.7-.2.5-.4 1-.7 1.4-.3.4-.7.7-1.2.9-.5.2-1 .3-1.7.3-.2 0-.4 0-.7-.1-.3 0-.5-.1-.7-.2s-.5-.2-.7-.4l-.6-.6v4.3H82V56.6h1.4zm4.9 3c-.1-.4-.3-.7-.5-1s-.5-.5-.8-.7-.7-.3-1.1-.3c-.5 0-.8.1-1.2.3-.3.2-.6.4-.8.7-.2.3-.3.6-.4 1s-.1.8-.1 1.1c0 .4 0 .8.1 1.2s.2.7.5 1 .5.5.8.7.7.3 1.2.3.9-.1 1.2-.3c.3-.2.6-.4.8-.7.2-.3.3-.6.4-1s.1-.8.1-1.2c-.1-.4-.1-.8-.2-1.1zM92.9 53.5v11.4h-1.4V53.5h1.4zM95.1 55.1v-1.7h1.4v1.7h-1.4zm1.4 1.5v8.3h-1.4v-8.3h1.4zM103.5 58.1c-.3-.3-.8-.4-1.4-.4-.5 0-.9.1-1.2.3-.3.2-.6.4-.8.7-.2.3-.3.6-.4 1s-.1.8-.1 1.2 0 .8.1 1.1c.1.4.2.7.4 1 .2.3.4.5.8.7s.7.3 1.1.3c.7 0 1.2-.2 1.6-.5.4-.4.6-.8.7-1.5h1.4c-.1 1-.5 1.8-1.1 2.4s-1.4.8-2.5.8c-.6 0-1.2-.1-1.7-.3-.5-.2-.9-.5-1.2-.9-.3-.4-.6-.8-.7-1.3-.2-.5-.2-1.1-.2-1.7 0-.6.1-1.2.2-1.7.2-.5.4-1 .7-1.4.3-.4.7-.7 1.2-.9s1.1-.3 1.7-.3c.5 0 .9.1 1.3.2s.8.3 1.1.5c.3.2.6.5.8.9.2.4.3.8.4 1.3h-1.4c-.2-.8-.4-1.2-.8-1.5zM114.5 64.9c-.2.1-.6.2-1 .2s-.6-.1-.8-.3-.3-.5-.3-1c-.4.4-.8.8-1.3 1s-1 .3-1.6.3c-.4 0-.7 0-1.1-.1s-.6-.2-.9-.4c-.2-.2-.4-.4-.6-.7-.1-.3-.2-.6-.2-1.1s.1-.9.2-1.2c.2-.3.4-.5.6-.7.3-.2.6-.3.9-.4.3-.1.7-.2 1-.2.4-.1.7-.1 1.1-.2.3 0 .6-.1.9-.2s.5-.2.6-.3.2-.3.2-.6-.1-.5-.2-.7-.3-.3-.4-.4c-.2-.1-.4-.2-.6-.2h-.6c-.6 0-1.1.1-1.4.3s-.6.6-.6 1.2H107c0-.5.1-.9.3-1.3.2-.4.4-.6.8-.9.3-.2.7-.4 1.1-.5s.9-.1 1.3-.1.7 0 1.1.1.7.2 1 .3.5.4.7.7.3.7.3 1.2V63c0 .3 0 .6.1.7 0 .1.2.2.4.2.1 0 .3 0 .4-.1v1.1zm-2.2-4.3c-.2.1-.4.2-.7.3s-.6.1-.9.1-.6.1-.9.1-.6.1-.8.2c-.2.1-.4.3-.6.5s-.2.5-.2.8c0 .2 0 .4.1.6.1.2.2.3.4.4.1.1.3.2.5.2s.4.1.6.1c.4 0 .8-.1 1.2-.2.3-.1.6-.3.8-.5.2-.2.4-.4.4-.6.1-.2.1-.4.1-.6v-1.4zM119.3 56.6v1.2h-1.6V63.4c0 .1.1.2.2.2.1.1.2.1.3.1h1.1v1.2h-1c-.4 0-.7 0-.9-.1-.3 0-.5-.1-.6-.3s-.3-.3-.3-.5c-.1-.2-.1-.5-.1-.9v-5.3H115v-1.2h1.4v-2.5h1.4v2.5h1.5zM120.9 55.1v-1.7h1.4v1.7h-1.4zm1.3 1.5v8.3h-1.4v-8.3h1.4zM124.2 59.1c.2-.5.4-1 .8-1.4.3-.4.8-.7 1.3-.9s1.1-.3 1.7-.3c.7 0 1.2.1 1.7.3s.9.5 1.3.9c.3.4.6.8.8 1.4.2.5.3 1.1.3 1.7s-.1 1.2-.3 1.7-.4 1-.8 1.4c-.3.4-.8.7-1.3.9-.5.2-1.1.3-1.7.3-.7 0-1.2-.1-1.7-.3-.5-.2-.9-.5-1.3-.9-.3-.4-.6-.8-.8-1.4s-.3-1.1-.3-1.7.1-1.2.3-1.7zm1.3 3c.1.4.3.7.6 1 .2.3.5.5.8.6s.6.2 1 .2.7-.1 1-.2.6-.3.8-.6.4-.6.6-1c.1-.4.2-.8.2-1.3s-.1-.9-.2-1.3-.3-.7-.6-1-.5-.5-.8-.6-.6-.2-1-.2-.7.1-1 .2-.6.3-.8.6c-.2.3-.4.6-.6 1s-.2.8-.2 1.3.1.9.2 1.3zM134.8 56.6v1.3c.6-1 1.5-1.5 2.7-1.5.5 0 1 .1 1.4.2s.7.4.9.6c.2.3.4.6.5 1s.1.8.1 1.2v5.4H139v-5.6c0-.5-.1-.9-.4-1.2-.3-.3-.7-.4-1.2-.4-.4 0-.8.1-1.1.2s-.6.3-.8.5-.4.5-.5.8-.2.7-.2 1v4.7h-1.4v-8.3h1.4v.1zM145.9 54.8v-1.3h9.1v1.3h-3.8v10.1h-1.5V54.8h-3.8zM159.3 66c-.2.4-.3.7-.5 1s-.3.5-.5.7-.4.3-.6.4-.5.1-.8.1h-.5c-.2 0-.3-.1-.5-.1v-1.2c.1.1.3.1.4.1s.3.1.4.1c.3 0 .5-.1.7-.2s.3-.3.4-.6l.6-1.4-3.3-8.2h1.6l2.4 6.8 2.3-6.8h1.5l-3.6 9.3zM165.6 56.6v1.1c.2-.5.6-.8 1.1-1s1-.3 1.6-.3 1.2.1 1.7.4c.5.2.9.6 1.2 1s.6.9.7 1.4c.2.5.2 1.1.2 1.7 0 .6-.1 1.1-.2 1.7-.2.5-.4 1-.7 1.4-.3.4-.7.7-1.2.9-.5.2-1 .3-1.7.3-.2 0-.4 0-.7-.1-.3 0-.5-.1-.8-.2-.2-.1-.5-.2-.7-.4l-.6-.6v4.3h-1.4V56.6h1.5zm4.9 3c-.1-.4-.3-.7-.5-1s-.5-.5-.8-.7-.7-.3-1.2-.3-.9.1-1.2.3-.6.4-.8.7-.4.6-.4 1c-.1.4-.1.8-.1 1.1 0 .4 0 .8.1 1.2s.2.7.5 1 .5.5.8.7.7.3 1.2.3.9-.1 1.2-.3.6-.4.8-.7.3-.6.4-1c.1-.4.1-.8.1-1.2.1-.4 0-.8-.1-1.1zM179.6 64.4c-.6.5-1.4.7-2.4.7-.7 0-1.2-.1-1.7-.3-.5-.2-.9-.5-1.2-.9s-.6-.8-.8-1.4-.3-1.1-.3-1.7c0-.6.1-1.2.3-1.7s.5-1 .8-1.4c.4-.4.8-.7 1.2-.9.5-.2 1-.3 1.6-.3.7 0 1.4.2 1.9.5s.9.7 1.2 1.2.5 1 .6 1.5c.1.6.2 1.1.1 1.6h-6.3c0 .4 0 .7.1 1s.3.6.5.9c.2.3.5.5.8.6.3.2.7.2 1.2.2.6 0 1.1-.1 1.4-.4.4-.3.6-.7.7-1.2h1.4c0 .8-.4 1.5-1.1 2zm-.3-5.3c-.1-.3-.3-.5-.5-.7s-.5-.4-.7-.5c-.3-.1-.6-.2-.9-.2-.4 0-.7.1-1 .2-.3.1-.5.3-.7.5s-.4.5-.5.7c-.1.3-.2.6-.2.9h4.8l-.3-.9z"/></g></svg>