<svg xmlns="http://www.w3.org/2000/svg" viewBox="0 0 345.4 76.1"><style>.st0{fill:#333}</style><path class="st0" d="M176.8 53.7l12.2 4c-1.6 2.5-3.6 4.8-5.9 6.8-2.2 2-4.6 3.7-7.2 5.2-2.6 1.5-5.3 2.6-8.3 3.3-2.9.8-5.9 1.2-9.1 1.2-10.1 0-18.6-3.7-25.8-10.8s-10.8-15.6-10.8-25.8c0-10.1 3.6-18.6 10.8-25.8 7-7.2 15.6-10.8 25.8-10.8 5 0 9.8.9 14.3 2.8 4.4 1.9 8.3 4.6 11.7 8l-8.8 8.6c-4.8-4.8-10.4-7.1-17.2-7.1-6.7 0-12.4 2.3-17.3 7.1-4.8 4.8-7 10.5-7 17.2s2.3 12.5 7 17.3c4.8 4.8 10.6 7 17.3 7 3.7 0 7-.7 10.1-2.1 3-1.5 5.8-3.5 8.2-6.1zm-18.4-22.2h30.5l-12.2 12.2h-18.4l.1-12.2zM238.1 4v12.2h-36.6L189.4 4h48.7zm-26.8 27.5h26.8v12.2h-28.4l-7.3-12.2h8.9zm-9.8 27.4h36.6v12.2h-48.7l12.1-12.2zM43.6 49h-29L6.9 70.2H0l25.8-69h6.5l25.8 69h-6.9L43.6 49zm-27-5.6h25.1L29.4 9.7h-.6L16.6 43.4zm53.1 26.8h-6.6v-69h24.7C101.4 1.1 110 9 110 21.3c0 9.8-5.6 17.1-14.8 19.5l16.7 29.3h-7.7L88.4 41.9H69.7v28.3zm0-34.2h17.7c10 0 15.9-5.3 15.9-14.5 0-9-6.1-14.5-16.2-14.5H69.7v29z"/><path class="st0" d="M276.8 53.6H252l-5.8 17.3H234l24-67.6h13.6l24 67.6h-13l-5.8-17.3zm-22-9.6H274l-9.2-27.9h-.8L254.8 44z"/><path class="st0" d="M304.9 70.9h-12.1V3.3h27.5c14.2 0 23.1 8.2 23.1 21.1 0 8.9-4.7 16.4-12.8 19.3l14.8 27.2h-13.8l-13.3-25.4h-13.4v25.4zm0-35h14c7.7 0 12.1-4.1 12.1-11.3 0-7-4.7-11.3-12.4-11.3h-13.7v22.6z"/></svg>