<svg xmlns="http://www.w3.org/2000/svg" viewBox="0 0 301.2 37.9"><linearGradient id="a" gradientUnits="userSpaceOnUse" x1="-45.815" y1="19.362" x2="341.314" y2="19.362"><stop offset="0" stop-color="#00d1ff"/><stop offset=".063" stop-color="#00ddfd"/><stop offset=".192" stop-color="#00f0f9"/><stop offset=".326" stop-color="#00fbf7"/><stop offset=".468" stop-color="#00fff6"/><stop offset="1" stop-color="#67ffdd"/></linearGradient><path d="M1.4 26.2C3.4 25 5.1 24 6.5 23c1.4-.9 2.6-1.8 3.5-2.5.9-.8 1.7-1.5 2.2-2.1.5-.7.9-1.3 1.2-2 .3-.7.4-1.4.5-2.1.1-.7.1-1.5.1-2.5V8.3H2.1V5.1h15.6v6.7c0 1.2 0 2.2-.1 3.1-.1.9-.2 1.8-.5 2.6s-.7 1.6-1.3 2.4c-.6.8-1.4 1.6-2.5 2.5-1.1.9-2.4 1.9-4 3s-3.6 2.3-5.9 3.7l-2-2.9zm32.1-8.1h-5.4v18.8h-3.8v-35h3.8v13h5.4v3.2z" fill="url(#a)"/><linearGradient id="b" gradientUnits="userSpaceOnUse" x1="-45.815" y1="19.856" x2="341.314" y2="19.856"><stop offset="0" stop-color="#00d1ff"/><stop offset=".063" stop-color="#00ddfd"/><stop offset=".192" stop-color="#00f0f9"/><stop offset=".326" stop-color="#00fbf7"/><stop offset=".468" stop-color="#00fff6"/><stop offset="1" stop-color="#67ffdd"/></linearGradient><path d="M45.1 13.9c-.1.3-.4.8-.9 1.4-.5.6-1.1 1.1-1.6 1.7-.8.7-1.7 1.5-2.7 2.4-1 .9-2.1 1.7-3.1 2.5l-2.2-2.7c1.2-.9 2.4-1.9 3.5-2.8 1.1-.9 2-1.7 2.6-2.4.5-.5.9-.9 1.2-1.4s.6-.9.8-1.4c.2-.5.3-1 .4-1.5-.1-.4-.1-1-.1-1.7V3.4h3.8v4.4c0 .6 0 1.1.1 1.6 0 .5.1.9.2 1.3s.3.8.6 1.2c.3.4.6.8 1.1 1.2.9.8 1.9 1.6 2.9 2.5 1.1.9 2.1 1.7 3.3 2.5l-2.2 2.6c-1-.7-1.9-1.5-2.8-2.2-.9-.7-1.8-1.5-2.7-2.3-.6-.5-1.1-.9-1.4-1.3-.4-.4-.7-.7-.8-1zm-3.6 15.8c0-.9.2-1.8.7-2.6.5-.8 1.2-1.5 2.1-2.1.9-.6 2-1.1 3.3-1.4 1.3-.4 2.8-.5 4.4-.5 1.6 0 3.1.2 4.4.5 1.3.4 2.4.8 3.3 1.4.9.6 1.6 1.3 2.1 2.1s.7 1.7.7 2.6v1.5c0 .9-.2 1.8-.7 2.6-.5.8-1.2 1.5-2.1 2.1s-2 1.1-3.3 1.4c-1.3.4-2.8.5-4.4.5-1.6 0-3.1-.2-4.4-.5-1.3-.4-2.4-.8-3.3-1.4s-1.6-1.3-2.1-2.1-.7-1.7-.7-2.6v-1.5zm17.4.2c0-.5-.2-.9-.5-1.4-.3-.5-.8-.9-1.4-1.2-.6-.4-1.3-.6-2.2-.9-.8-.2-1.7-.4-2.8-.4s-2 .1-2.9.3c-.8.2-1.6.5-2.2.9-.6.4-1.1.8-1.4 1.2-.3.5-.5.9-.5 1.4V31c0 .5.2.9.5 1.4.3.5.8.9 1.4 1.2.6.4 1.3.6 2.2.9.8.2 1.8.3 2.9.3s2-.1 2.9-.3c.8-.2 1.6-.5 2.2-.9.6-.4 1.1-.8 1.4-1.2.3-.5.5-.9.5-1.4v-1.1zm8.5-16.3h-5v8.9h-3.7V1.8h3.7v8.5h5v3.3z" fill="url(#b)"/><linearGradient id="c" gradientUnits="userSpaceOnUse" x1="-45.815" y1="19" x2="341.314" y2="19"><stop offset="0" stop-color="#00d1ff"/><stop offset=".063" stop-color="#00ddfd"/><stop offset=".192" stop-color="#00f0f9"/><stop offset=".326" stop-color="#00fbf7"/><stop offset=".468" stop-color="#00fff6"/><stop offset="1" stop-color="#67ffdd"/></linearGradient><path d="M98.8 8.9H78.5V5.7h8.1V1.5h3.7v4.2h8.4v3.2zM88.5 24.3c-1.4 0-2.6-.2-3.6-.6-1-.4-1.9-.9-2.5-1.5-.7-.6-1.2-1.3-1.5-2.1-.3-.8-.5-1.6-.5-2.4v-1.1c0-.8.2-1.6.5-2.4.3-.8.8-1.5 1.5-2.1.7-.6 1.5-1.1 2.5-1.4 1-.4 2.2-.6 3.6-.6s2.6.2 3.6.6c1 .4 1.9.9 2.5 1.5.7.6 1.2 1.3 1.5 2.1.3.8.5 1.6.5 2.4v1.1c0 .8-.2 1.6-.5 2.4-.3.8-.8 1.5-1.5 2.1-.7.6-1.5 1.1-2.5 1.5-1 .3-2.2.5-3.6.5zm0-3c.8 0 1.4-.1 2-.3.6-.2 1-.5 1.4-.8.4-.3.7-.7.9-1.2.2-.4.3-.9.3-1.3v-.8c0-.5-.1-.9-.3-1.3-.2-.4-.5-.8-.8-1.2-.4-.3-.9-.6-1.4-.8-.6-.2-1.2-.3-2-.3s-1.5.1-2 .3c-.6.2-1 .5-1.4.8-.4.3-.7.7-.8 1.2-.3.4-.4.8-.4 1.3v.8c0 .5.1.9.3 1.3.2.4.5.8.9 1.2.4.3.9.6 1.4.8.5.2 1.2.3 1.9.3zm.8 11.9h18.8v3.3H85.6v-9.7h3.8v6.4zm14.5-5.9v-5.9h-5.1v-3.2h5.1V14h-5.1v-3.2h5.1v-9h3.7v25.4h-3.7z" fill="url(#c)"/><linearGradient id="d" gradientUnits="userSpaceOnUse" x1="-45.815" y1="19.476" x2="341.314" y2="19.476"><stop offset="0" stop-color="#00d1ff"/><stop offset=".063" stop-color="#00ddfd"/><stop offset=".192" stop-color="#00f0f9"/><stop offset=".326" stop-color="#00fbf7"/><stop offset=".468" stop-color="#00fff6"/><stop offset="1" stop-color="#67ffdd"/></linearGradient><path d="M123.3 12.3c-.1.3-.3.7-.8 1.2s-1 1.1-1.7 1.7c-.8.7-1.8 1.5-2.8 2.4-1.1.9-2.1 1.7-3.2 2.4l-2.2-2.7c1.2-.9 2.4-1.8 3.5-2.7 1.1-.9 2.1-1.7 2.7-2.3.9-.9 1.6-1.7 1.9-2.6.4-.8.5-1.9.5-3.3V2.7h3.8v3.7c0 .6 0 1.1.1 1.6 0 .5.1.9.3 1.3.1.4.3.8.6 1.1.3.4.6.7 1 1.1.9.8 1.9 1.6 2.9 2.4 1.1.8 2.2 1.5 3.2 2.3l-2.2 2.7c-1-.7-1.9-1.4-2.9-2.1s-1.8-1.4-2.7-2.2c-.5-.4-1-.9-1.4-1.3s-.4-.7-.6-1zm-3.7 24.8v-9.6h18v-3.4h-18.2V21h21.9v9.5h-18V34h19v3.1h-22.7zm18-17.8V1.8h3.7v17.4h-3.7z" fill="url(#d)"/><linearGradient id="e" gradientUnits="userSpaceOnUse" x1="-45.815" y1="19.856" x2="341.314" y2="19.856"><stop offset="0" stop-color="#00d1ff"/><stop offset=".063" stop-color="#00ddfd"/><stop offset=".192" stop-color="#00f0f9"/><stop offset=".326" stop-color="#00fbf7"/><stop offset=".468" stop-color="#00fff6"/><stop offset="1" stop-color="#67ffdd"/></linearGradient><path d="M169.5 7.2h-11.2V4h14.9v5.5c0 1.4-.2 2.7-.6 3.8s-1.2 2.1-2.3 3c-1.1.9-2.6 1.9-4.5 2.9s-4.4 2.1-7.4 3.4l-1.5-3c2.6-1.1 4.8-2.1 6.4-2.9 1.6-.8 2.9-1.6 3.8-2.4.9-.8 1.5-1.5 1.9-2.3.3-.8.5-1.7.5-2.7V7.2zm-5.9 22.5c0-.9.2-1.8.7-2.6.5-.8 1.2-1.5 2.1-2.1.9-.6 2.1-1.1 3.4-1.4 1.3-.4 2.8-.5 4.5-.5s3.2.2 4.5.5c1.3.4 2.5.8 3.4 1.4.9.6 1.6 1.3 2.1 2.1s.7 1.7.7 2.6v1.5c0 .9-.2 1.8-.7 2.6-.5.8-1.2 1.5-2.1 2.1s-2.1 1.1-3.4 1.4c-1.3.4-2.8.5-4.5.5s-3.2-.2-4.5-.5c-1.3-.4-2.5-.8-3.4-1.4-.9-.6-1.6-1.3-2.1-2.1s-.7-1.7-.7-2.6v-1.5zm17.8.2c0-.5-.2-.9-.5-1.4-.3-.5-.8-.9-1.4-1.2-.6-.4-1.3-.6-2.2-.9s-1.9-.3-2.9-.3c-1.1 0-2.1.1-2.9.3s-1.6.5-2.2.9c-.6.4-1.1.8-1.4 1.2-.3.5-.5.9-.5 1.4V31c0 .5.2.9.5 1.4s.8.9 1.4 1.2c.6.4 1.3.6 2.2.9s1.9.3 2.9.3c1.1 0 2.1-.1 2.9-.3s1.6-.5 2.2-.9c.6-.4 1.1-.8 1.4-1.2.3-.5.5-.9.5-1.4v-1.1zm-.1-7.4v-5.1h-6.8v-3.2h6.8v-4.1h-6.2V6.9h6.2V1.8h3.7v20.7h-3.7z" fill="url(#e)"/><linearGradient id="f" gradientUnits="userSpaceOnUse" x1="-45.815" y1="19.362" x2="341.314" y2="19.362"><stop offset="0" stop-color="#00d1ff"/><stop offset=".063" stop-color="#00ddfd"/><stop offset=".192" stop-color="#00f0f9"/><stop offset=".326" stop-color="#00fbf7"/><stop offset=".468" stop-color="#00fff6"/><stop offset="1" stop-color="#67ffdd"/></linearGradient><path d="M198.8 19.8c-.1.4-.3.8-.6 1.2-.3.4-.6.9-1 1.3-.8.9-1.6 1.9-2.5 2.9-.9 1-1.9 2-2.9 3.1l-2.5-2.5 3.2-3.2c1-1 1.9-2.1 2.7-3.2.8-1 1.3-2 1.5-2.9.3-1 .4-2 .4-3.1v-5h-6V5.2h15.3v3.2h-5.6v5c0 1.1.1 2.1.4 3 .3.9.8 1.9 1.6 2.9s1.6 2 2.5 3c.9.9 1.9 2 3 3l-2.5 2.5c-1-1-1.9-2-2.8-2.8l-2.4-2.7c-.4-.5-.7-.9-1-1.3-.4-.4-.6-.8-.8-1.2zm11-17.2h3.7v32.6h-3.7V16.6h-5.3v-3.3h5.3V2.6zm10.6 34.3h-3.7v-35h3.7v35z" fill="url(#f)"/><linearGradient id="g" gradientUnits="userSpaceOnUse" x1="-45.815" y1="19.19" x2="341.314" y2="19.19"><stop offset="0" stop-color="#00d1ff"/><stop offset=".063" stop-color="#00ddfd"/><stop offset=".192" stop-color="#00f0f9"/><stop offset=".326" stop-color="#00fbf7"/><stop offset=".468" stop-color="#00fff6"/><stop offset="1" stop-color="#67ffdd"/></linearGradient><path d="M255.6 21.9c-1.5.2-3 .3-4.4.4-1.4.1-3 .2-4.6.3-1.7.1-3.6.1-5.7.2-2.1 0-4.6.1-7.6.1v-3.1h9V18c-2-.2-3.5-.7-4.5-1.5s-1.5-1.7-1.5-2.9v-.8c0-1.3.7-2.4 2-3.2s3.3-1.3 6-1.3c2.6 0 4.6.4 6 1.3s2 1.9 2 3.2v.8c0 1.1-.5 2.1-1.6 2.9s-2.6 1.3-4.7 1.5v1.5c1.6-.1 3.2-.1 4.6-.2 1.4-.1 3-.2 4.7-.4l.3 3zm-1.9-17.7v3.1h-19.1V4.2h7.8v-3h3.7v3h7.6zm-15.3 32.9v-7.9h19.1v-1.9h-19.3v-3h23v7.8H242v2h20.3v3h-23.9zm5.8-25.8c-1.5 0-2.6.2-3.3.5-.7.3-1 .8-1 1.3v.3c0 .5.3 1 1 1.3.7.3 1.8.5 3.3.5 1.5 0 2.6-.2 3.3-.5.7-.3 1-.8 1-1.3v-.3c0-.5-.3-1-1-1.3-.7-.4-1.8-.5-3.3-.5zM257.4 23V1.8h3.7v9h4.9v3.3h-4.9V23h-3.7z" fill="url(#g)"/><linearGradient id="h" gradientUnits="userSpaceOnUse" x1="-45.815" y1="20.502" x2="341.314" y2="20.502"><stop offset="0" stop-color="#00d1ff"/><stop offset=".063" stop-color="#00ddfd"/><stop offset=".192" stop-color="#00f0f9"/><stop offset=".326" stop-color="#00fbf7"/><stop offset=".468" stop-color="#00fff6"/><stop offset="1" stop-color="#67ffdd"/></linearGradient><path d="M294.6 3.1v3.2h-18.7v5.6h19v3.2h-9.5v3.6h14.2v3.2h-32.1v-3.2h14.2v-3.6h-9.4v-12h22.3zm-11.1 34.8c-1.7 0-3.2-.2-4.5-.5-1.4-.3-2.5-.8-3.5-1.3-.9-.6-1.7-1.2-2.2-2-.5-.8-.8-1.6-.8-2.5v-1.3c0-.9.3-1.8.8-2.5.5-.8 1.2-1.4 2.2-2 1-.6 2.1-1 3.5-1.3 1.4-.3 2.9-.5 4.5-.5s3.2.2 4.5.5c1.3.3 2.5.8 3.4 1.3.9.6 1.7 1.2 2.2 2 .5.8.8 1.6.8 2.5v1.3c0 .9-.3 1.7-.8 2.5s-1.2 1.4-2.2 2c-.9.6-2.1 1-3.5 1.3-1.2.3-2.7.5-4.4.5zm0-10.9c-1.1 0-2 .1-2.9.3-.9.2-1.6.4-2.3.8-.6.3-1.1.7-1.5 1.1-.4.4-.5.9-.5 1.3v.8c0 .5.2.9.5 1.3.4.4.8.8 1.5 1.1.6.3 1.4.6 2.3.8.9.2 1.9.3 2.9.3 1.1 0 2-.1 2.9-.3s1.6-.4 2.3-.8c.6-.3 1.1-.7 1.5-1.1.4-.4.5-.9.5-1.3v-.8c0-.5-.2-.9-.5-1.3-.4-.4-.8-.8-1.5-1.1-.6-.3-1.4-.6-2.3-.8s-1.8-.3-2.9-.3z" fill="url(#h)"/></svg>