<svg xmlns="http://www.w3.org/2000/svg" viewBox="0 0 219.7 37.9"><linearGradient id="a" gradientUnits="userSpaceOnUse" x1="-37.008" y1="18.611" x2="243.121" y2="18.611"><stop offset="0" stop-color="#00d1ff"/><stop offset=".063" stop-color="#00ddfd"/><stop offset=".192" stop-color="#00f0f9"/><stop offset=".326" stop-color="#00fbf7"/><stop offset=".468" stop-color="#00fff6"/><stop offset="1" stop-color="#67ffdd"/></linearGradient><path d="M1 25.4c2-1.2 3.7-2.2 5.1-3.2 1.4-.9 2.6-1.8 3.5-2.5.9-.8 1.7-1.5 2.2-2.1.5-.7.9-1.3 1.2-2 .3-.7.4-1.4.5-2.1.1-.7.1-1.5.1-2.5V7.6H1.7V4.4h15.6V11c0 1.2 0 2.2-.1 3.1-.1.9-.2 1.8-.5 2.6s-.7 1.6-1.3 2.4c-.6.8-1.4 1.6-2.5 2.5-1.1.9-2.4 1.9-4 3C7.2 25.8 5.3 27 3 28.4l-2-3zm32.1-8.1h-5.4v18.8H24v-35h3.8v13h5.4v3.2z" fill="url(#a)"/><linearGradient id="b" gradientUnits="userSpaceOnUse" x1="-37.008" y1="19.105" x2="243.121" y2="19.105"><stop offset="0" stop-color="#00d1ff"/><stop offset=".063" stop-color="#00ddfd"/><stop offset=".192" stop-color="#00f0f9"/><stop offset=".326" stop-color="#00fbf7"/><stop offset=".468" stop-color="#00fff6"/><stop offset="1" stop-color="#67ffdd"/></linearGradient><path d="M44.7 13.2c-.1.3-.4.8-.9 1.4-.5.6-1.1 1.1-1.6 1.7-.8.7-1.7 1.5-2.7 2.4-1 .9-2.1 1.7-3.1 2.5l-2.2-2.7c1.2-.9 2.4-1.9 3.5-2.8 1.1-.9 2-1.7 2.6-2.4.5-.5.9-.9 1.2-1.4s.6-.9.8-1.4c.2-.5.3-1 .4-1.5.1-.5.1-1.1.1-1.8V2.7h3.8v4.4c0 .6 0 1.1.1 1.6 0 .5.1.9.2 1.3s.3.8.6 1.2.6.8 1.1 1.2c.9.8 1.9 1.6 2.9 2.5s2.1 1.7 3.3 2.5L52.4 20c-1-.7-1.9-1.5-2.8-2.2-.9-.7-1.8-1.5-2.7-2.3-.6-.5-1.1-.9-1.4-1.3-.4-.4-.7-.7-.8-1zm-3.6 15.7c0-.9.2-1.8.7-2.6.5-.8 1.2-1.5 2.1-2.1.9-.6 2-1.1 3.3-1.4 1.3-.4 2.8-.5 4.4-.5 1.6 0 3.1.2 4.4.5 1.3.4 2.4.8 3.3 1.4.9.6 1.6 1.3 2.1 2.1s.7 1.7.7 2.6v1.5c0 .9-.2 1.8-.7 2.6-.5.8-1.2 1.5-2.1 2.1s-2 1.1-3.3 1.4c-1.3.4-2.8.5-4.4.5-1.6 0-3.1-.2-4.4-.5-1.3-.4-2.4-.8-3.3-1.4s-1.6-1.3-2.1-2.1-.7-1.7-.7-2.6v-1.5zm17.4.2c0-.5-.2-.9-.5-1.4-.3-.5-.8-.9-1.4-1.2-.6-.4-1.3-.6-2.2-.9-.8-.2-1.8-.3-2.9-.3s-2 .1-2.9.3c-.8.2-1.6.5-2.2.9s-1.1.8-1.4 1.2c-.3.5-.5.9-.5 1.4v1.1c0 .5.2.9.5 1.4.3.5.8.9 1.4 1.2.6.4 1.3.6 2.2.9.8.2 1.8.3 2.9.3s2-.1 2.9-.3c.8-.2 1.6-.5 2.2-.9.6-.4 1.1-.8 1.4-1.2.3-.5.5-.9.5-1.4v-1.1zM67 12.8h-5v8.9h-3.7V1.1H62v8.5h5v3.2z" fill="url(#b)"/><linearGradient id="c" gradientUnits="userSpaceOnUse" x1="-37.008" y1="18.249" x2="243.121" y2="18.249"><stop offset="0" stop-color="#00d1ff"/><stop offset=".063" stop-color="#00ddfd"/><stop offset=".192" stop-color="#00f0f9"/><stop offset=".326" stop-color="#00fbf7"/><stop offset=".468" stop-color="#00fff6"/><stop offset="1" stop-color="#67ffdd"/></linearGradient><path d="M98.4 8.2H78.1V5h8.1V.8H90V5h8.4v3.2zM88.1 23.6c-1.4 0-2.6-.2-3.6-.6-1-.4-1.9-.9-2.5-1.5-.7-.6-1.2-1.3-1.5-2.1-.3-.8-.5-1.6-.5-2.4v-1c0-.8.2-1.6.5-2.4.3-.8.8-1.5 1.5-2.1.7-.6 1.5-1.1 2.5-1.4 1-.4 2.2-.6 3.6-.6s2.6.2 3.6.6c1 .4 1.9.9 2.5 1.5.7.6 1.2 1.3 1.5 2.1.3.8.5 1.6.5 2.4v1.1c0 .8-.2 1.6-.5 2.4-.3.8-.8 1.5-1.5 2.1-.7.6-1.5 1.1-2.5 1.5-1 .2-2.2.4-3.6.4zm0-3.1c.8 0 1.4-.1 2-.3.6-.2 1-.5 1.4-.8.4-.3.7-.7.9-1.2s.3-.9.3-1.3v-.8c0-.5-.1-.9-.3-1.3-.2-.4-.5-.8-.8-1.2-.4-.3-.9-.6-1.4-.8s-1.2-.3-2-.3-1.5.1-2 .3-1 .5-1.4.8c-.4.3-.7.7-.8 1.2-.2.4-.3.9-.3 1.3v.8c0 .5.1.9.3 1.3s.5.8.9 1.2c.4.3.9.6 1.4.8.4.2 1.1.3 1.8.3zm.8 12h18.8v3.3H85.2v-9.7H89v6.4zm14.5-6v-5.9h-5.1v-3.2h5.1v-4.2h-5.1V9.9h5.1V1.1h3.7v25.4h-3.7z" fill="url(#c)"/><linearGradient id="d" gradientUnits="userSpaceOnUse" x1="-37.008" y1="18.725" x2="243.121" y2="18.725"><stop offset="0" stop-color="#00d1ff"/><stop offset=".063" stop-color="#00ddfd"/><stop offset=".192" stop-color="#00f0f9"/><stop offset=".326" stop-color="#00fbf7"/><stop offset=".468" stop-color="#00fff6"/><stop offset="1" stop-color="#67ffdd"/></linearGradient><path d="M122.9 11.6c-.1.3-.3.7-.8 1.2s-1 1.1-1.7 1.7c-.8.7-1.8 1.5-2.8 2.4-1.1.9-2.1 1.7-3.2 2.4l-2.2-2.7c1.2-.9 2.4-1.8 3.5-2.7 1.1-.9 2.1-1.7 2.7-2.3.9-.9 1.6-1.7 1.9-2.6.4-.8.5-1.9.5-3.3V2h3.8v3.7c0 .6 0 1.1.1 1.6 0 .5.1.9.3 1.3s.3.8.6 1.1c.3.4.6.7 1 1.1.9.8 1.9 1.6 2.9 2.4 1.1.8 2.2 1.5 3.2 2.3l-2.2 2.7c-1-.7-1.9-1.4-2.9-2.1s-1.8-1.4-2.7-2.2c-.5-.4-1-.9-1.4-1.3s-.4-.7-.6-1zm-3.7 24.8v-9.6h18v-3.4H119v-3.1h21.9v9.5h-18v3.4h19v3.1h-22.7zm18-17.9V1.1h3.7v17.4h-3.7z" fill="url(#d)"/><linearGradient id="e" gradientUnits="userSpaceOnUse" x1="-37.008" y1="17.756" x2="243.121" y2="17.756"><stop offset="0" stop-color="#00d1ff"/><stop offset=".063" stop-color="#00ddfd"/><stop offset=".192" stop-color="#00f0f9"/><stop offset=".326" stop-color="#00fbf7"/><stop offset=".468" stop-color="#00fff6"/><stop offset="1" stop-color="#67ffdd"/></linearGradient><path d="M187.5 28.3v3.2h-32.1v-3.2H167v-8.1h3.8v8.1h16.7zm-4.6-24.2v5c0 1.8 0 3.4-.1 4.8s-.1 2.7-.2 3.9c-.1 1.2-.2 2.3-.4 3.4s-.3 2.1-.6 3.2l-3.8-.5c.3-1.4.5-2.7.7-4 .2-1.3.3-2.6.4-3.9l-20 .3-.1-3.2 20.3-.2v-1.3-4.3h-19.7V4.1h23.5z" fill="url(#e)"/><linearGradient id="f" gradientUnits="userSpaceOnUse" x1="-37.008" y1="18.421" x2="243.121" y2="18.421"><stop offset="0" stop-color="#00d1ff"/><stop offset=".063" stop-color="#00ddfd"/><stop offset=".192" stop-color="#00f0f9"/><stop offset=".326" stop-color="#00fbf7"/><stop offset=".468" stop-color="#00fff6"/><stop offset="1" stop-color="#67ffdd"/></linearGradient><path d="M191 10.5c0-.9.2-1.8.5-2.7.4-1 .9-1.8 1.6-2.6.7-.8 1.6-1.4 2.7-1.9s2.4-.8 3.9-.8 2.8.3 3.9.8 2 1.2 2.8 1.9c.7.8 1.3 1.7 1.6 2.6s.5 1.9.5 2.7v2c0 .9-.2 1.8-.5 2.7-.4 1-.9 1.8-1.6 2.6-.7.8-1.7 1.4-2.8 1.9-1.1.5-2.4.8-3.9.8s-2.8-.3-3.9-.8-2-1.2-2.7-1.9c-.7-.8-1.3-1.7-1.6-2.6-.4-.9-.5-1.9-.5-2.7v-2zm13.9.2c0-.6-.1-1.2-.3-1.7-.2-.6-.5-1.1-.9-1.6s-1-.8-1.6-1.1c-.6-.3-1.4-.4-2.3-.4-.9 0-1.7.1-2.4.4-.7.3-1.2.7-1.6 1.1s-.7 1-.9 1.6c-.2.6-.3 1.2-.3 1.7v1.7c0 .6.1 1.2.3 1.7.2.6.5 1.1.9 1.6s1 .8 1.6 1.1c.6.3 1.4.4 2.3.4.9 0 1.7-.1 2.3-.4.6-.3 1.2-.7 1.6-1.1s.7-1 .9-1.6c.2-.6.3-1.2.3-1.7v-1.7zm-4.5 21.8h18.8v3.3h-22.6V24.1h3.8v8.4zm14.4-6.4v-25h3.7v25h-3.7z" fill="url(#f)"/></svg>