<svg id="레이어_1" xmlns="http://www.w3.org/2000/svg" viewBox="0 0 82.2 25.2"><style>.st0{fill:#2a2e2f}</style><path class="st0" d="M17.5 11.4h5.8c1.1 0 2.1.3 2.8 1 .7.6 1.1 1.6 1.1 2.7 0 1-.3 1.9-.9 2.6-.6.7-1.6 1.1-2.9 1.1h-4v5.5h-1.7V11.4zm6.7 1.8c-.4-.2-.9-.3-1.6-.3h-3.5v4.5h3.5c.8 0 1.4-.2 1.9-.5s.7-.9.7-1.8c.1-.9-.3-1.6-1-1.9zM29.1 11.4h1.6v12.9h-1.6V11.4zM38.1 18.6c.4 0 .6-.2.7-.5.1-.1.1-.3.1-.6 0-.5-.2-.9-.6-1.2-.3-.2-.8-.3-1.6-.3s-1.4.2-1.8.7c-.2.2-.3.6-.4 1.1H33c0-1.2.4-2 1.1-2.4.7-.5 1.6-.7 2.5-.7 1.1 0 2 .2 2.7.6.7.4 1 1.1 1 2v5.4c0 .2 0 .3.1.4s.2.1.4.1h.5v1.2c-.2.1-.4.1-.6.1h-.5c-.5 0-.9-.2-1.2-.6-.1-.2-.2-.5-.3-.9-.3.4-.8.8-1.4 1.1s-1.3.5-2 .5c-.9 0-1.6-.3-2.1-.8-.6-.5-.8-1.2-.8-2 0-.9.3-1.5.8-2s1.3-.8 2.1-.9l2.8-.3zm-3.3 4.3c.3.3.7.4 1.2.4.6 0 1.1-.1 1.6-.4.9-.4 1.3-1.1 1.3-2.1v-1.3c-.2.1-.4.2-.7.3-.3.1-.6.1-.9.2l-1 .1c-.6.1-1 .2-1.3.4-.5.3-.7.7-.7 1.3 0 .5.2.8.5 1.1zM43.4 12.3H45v2.6h1.5v1.3H45v6.1c0 .3.1.5.3.7.1.1.3.1.6.1h.5v1.3c-.2.1-.4.1-.6.1h-.6c-.7 0-1.2-.2-1.5-.6-.3-.4-.4-.9-.4-1.5v-6.2H42v-1.3h1.3v-2.6zM48.8 12c.4-.5 1.1-.8 2.1-.8h.7v1.4H51c-.5 0-.8.1-.9.4s-.1.9-.1 1.9h1.6v1.2H50v8.1h-1.6v-8.1h-1.3V15h1.3v-1.5c.1-.7.2-1.2.4-1.5zM59.9 15.8c.8.8 1.2 2 1.2 3.6 0 1.5-.4 2.8-1.1 3.8s-1.9 1.5-3.4 1.5c-1.3 0-2.3-.4-3.1-1.3-.8-.9-1.1-2.1-1.1-3.5 0-1.6.4-2.8 1.2-3.8s1.9-1.4 3.2-1.4c1.3-.1 2.3.3 3.1 1.1zm-1 6.3c.4-.8.6-1.7.6-2.6 0-.9-.1-1.6-.4-2.1-.4-.9-1.2-1.3-2.3-1.3-1 0-1.7.4-2.1 1.1s-.7 1.6-.7 2.7c0 1 .2 1.8.7 2.5s1.1 1 2.1 1c1-.1 1.7-.5 2.1-1.3zM63.1 14.9h1.5v1.6c.1-.3.4-.7.9-1.2s1-.7 1.7-.7h.5v1.7h-.6c-.8 0-1.4.3-1.8.8-.4.5-.6 1.1-.6 1.8v5.4h-1.6v-9.4zM69.1 14.9h1.6v1.3c.4-.5.7-.8 1-1 .5-.4 1.1-.5 1.8-.5.8 0 1.4.2 1.8.6.3.2.5.5.7.9.4-.5.8-.9 1.2-1.1.5-.2 1-.4 1.6-.4 1.3 0 2.1.5 2.6 1.4.2.5.4 1.2.4 2v6.3h-1.6v-6.5c0-.6-.2-1.1-.5-1.3s-.7-.4-1.1-.4c-.6 0-1.2.2-1.6.6-.4.4-.7 1.1-.7 2.1v5.5h-1.6v-6.1c0-.6-.1-1.1-.2-1.4-.2-.4-.7-.7-1.3-.7-.6 0-1.1.2-1.6.7-.5.5-.7 1.3-.7 2.5v5h-1.6v-9.5z"/><path fill="none" stroke="#979c9d" stroke-miterlimit="10" d="M13.7 1.5L1.8 22.9"/></svg>