<?xml version="1.0" encoding="UTF-8"?>
<svg enable-background="new 0 0 32.635 32.635" version="1.1" viewBox="0 0 32.635 32.635" xml:space="preserve" xmlns="http://www.w3.org/2000/svg">
<g stroke="#e6e6e6" stroke-width="2">
	<path d="m32.135 16.817h-31.635c-0.276 0-0.5-0.224-0.5-0.5s0.224-0.5 0.5-0.5h31.635c0.276 0 0.5 0.224 0.5 0.5s-0.224 0.5-0.5 0.5z"/>
	<path d="m19.598 29.353c-0.128 0-0.256-0.049-0.354-0.146-0.195-0.195-0.195-0.512 0-0.707l12.184-12.184-12.184-12.18c-0.195-0.195-0.195-0.512 0-0.707s0.512-0.195 0.707 0l12.537 12.533c0.094 0.094 0.146 0.221 0.146 0.354s-0.053 0.26-0.146 0.354l-12.537 12.536c-0.097 0.098-0.225 0.147-0.353 0.147z"/>
</g>
</svg>
