<?xml version="1.0" encoding="UTF-8"?>
<!DOCTYPE svg  PUBLIC '-//W3C//DTD SVG 1.1//EN'  'http://www.w3.org/Graphics/SVG/1.1/DTD/svg11.dtd'>
<svg enable-background="new 0 0 512 512" version="1.1" viewBox="0 0 512 512" xml:space="preserve" xmlns="http://www.w3.org/2000/svg"><path d="m296.13 354.17c49.885-5.891 102.94-24.029 102.94-110.19 0-24.49-8.624-44.448-22.67-59.869 2.266-5.89 9.515-28.114-2.734-58.947 0 0-18.139-5.898-60.759 22.669-18.139-4.983-38.09-8.163-56.682-8.163-19.053 0-39.011 3.18-56.697 8.163-43.082-28.567-61.22-22.669-61.22-22.669-12.241 30.833-4.983 53.057-2.718 58.947-14.061 15.42-22.677 35.379-22.677 59.869 0 86.163 53.057 104.3 102.94 110.19-6.344 5.452-12.241 15.873-14.507 30.387-12.702 5.438-45.808 15.873-65.758-18.592 0 0-11.795-21.31-34.012-22.669 0 0-22.224-0.453-1.813 13.592 0 0 14.96 6.812 24.943 32.653 0 0 13.6 43.089 76.179 29.48v38.543c0 5.906-4.53 12.702-15.865 10.89-88.888-29.481-152.83-113.83-152.83-212.69 0-123.81 100.22-224.02 224.03-224.02 123.35 0 224.02 100.22 223.57 224.02 0 98.856-63.946 182.75-152.83 212.69-11.342 2.266-15.873-4.53-15.873-10.89v-62.118c1e-3 -20.873-6.811-34.465-14.966-41.276zm215.87-97.944c0-141.5-114.74-256.23-255.77-256.23-141.5 0-256.23 114.73-256.23 256.23 0 141.03 114.73 255.77 256.23 255.77 141.03 0 255.77-114.74 255.77-255.77z" clip-rule="evenodd" fill="#6f6f6f" fill-rule="evenodd"/></svg>
