<?xml version="1.0" encoding="UTF-8"?>
<svg width="512px" height="512px" enable-background="new 0 0 55.343 55.343" version="1.1" viewBox="0 0 55.343 55.343" xml:space="preserve" xmlns="http://www.w3.org/2000/svg">
<g fill="#c1c1c1">
	<path d="m10.485 7.094h3.587c1.657 0 3-1.343 3-3s-1.343-3-3-3h-10.83c-9e-3 0-0.018 2e-3 -0.027 3e-3 -0.188 1e-3 -0.375 0.02-0.56 0.056-0.09 0.018-0.174 0.052-0.262 0.078-0.1 0.029-0.202 0.053-0.299 0.093-0.1 0.042-0.191 0.098-0.285 0.15-0.077 0.042-0.157 0.076-0.231 0.126-0.162 0.108-0.312 0.23-0.449 0.367-2e-3 3e-3 -6e-3 4e-3 -8e-3 7e-3 -6e-3 6e-3 -9e-3 0.013-0.015 0.019-0.034 0.035-0.061 0.077-0.094 0.114-0.616 0.55-1.011 1.341-1.011 2.231v10.83c0 1.657 1.343 3 3 3s3-1.343 3-3v-4.072l10.124 10.122c0.585 0.585 1.354 0.878 2.121 0.878s1.536-0.293 2.122-0.879c1.171-1.171 1.171-3.071 0-4.243l-9.883-9.88z"/>
	<path d="m16.125 34.124-10.125 10.125v-4.072c0-1.657-1.343-3-3-3s-3 1.343-3 3v10.83c0 0.891 0.396 1.682 1.011 2.23 0.17 0.19 0.355 0.365 0.568 0.507 0.071 0.048 0.148 0.08 0.222 0.121 0.097 0.054 0.191 0.111 0.294 0.154 0.098 0.041 0.199 0.063 0.3 0.094 0.087 0.025 0.17 0.059 0.26 0.076 0.194 0.039 0.391 0.06 0.587 0.06h10.83c1.657 0 3-1.343 3-3s-1.343-3-3-3h-3.588l9.883-9.883c1.172-1.171 1.172-3.071 0-4.242-1.171-1.172-3.071-1.172-4.242 0z"/>
	<path d="m52.342 37.177c-1.657 0-3 1.343-3 3v4.072l-10.125-10.125c-1.172-1.172-3.07-1.172-4.242 0-1.172 1.171-1.172 3.071 0 4.242l9.883 9.883h-3.588c-1.657 0-3 1.343-3 3s1.343 3 3 3h10.83c0.196 0 0.394-0.021 0.587-0.06 0.093-0.018 0.178-0.052 0.268-0.079 0.098-0.029 0.197-0.051 0.292-0.09 0.107-0.045 0.206-0.105 0.308-0.162 0.069-0.039 0.142-0.068 0.208-0.113 0.213-0.143 0.399-0.316 0.569-0.508 0.615-0.549 1.011-1.34 1.011-2.23v-10.83c-1e-3 -1.657-1.344-3-3.001-3z"/>
	<path d="m36.975 22.099c0.768 0 1.535-0.293 2.121-0.879l10.125-10.125v4.072c0 1.657 1.343 3 3 3s3-1.343 3-3v-10.831c0-0.89-0.396-1.682-1.012-2.231-0.169-0.19-0.355-0.365-0.567-0.507-0.069-0.046-0.144-0.077-0.215-0.117-0.1-0.055-0.195-0.115-0.302-0.159-0.097-0.04-0.197-0.063-0.297-0.092-0.087-0.026-0.171-0.06-0.263-0.078-0.193-0.039-0.39-0.059-0.587-0.059h-10.83c-1.657 0-3 1.343-3 3s1.343 3 3 3h3.588l-9.883 9.883c-1.172 1.171-1.172 3.071 0 4.242 0.587 0.587 1.354 0.881 2.122 0.881z"/>
</g>
</svg>
