<?xml version="1.0" encoding="UTF-8"?>
<svg width="50px" height="50px" version="1.1" viewBox="0 0 252 252" xmlns="http://www.w3.org/2000/svg"  class="svg_ico_link">
<g font-family="none" font-size="none" font-weight="none" stroke-dasharray="" stroke-miterlimit="10" text-anchor="none" style="mix-blend-mode:normal">
<path d="m0 252v-252h252v252z" fill="none"/>
<g fill="#333">
<path d="m218.24 25.118c-0.313 0.00989-0.62521 0.03728-0.93516 0.08203h-49.301c-3.0293-0.04284-5.8471 1.5488-7.3743 4.1653-1.5272 2.6166-1.5272 5.8528 0 8.4693s4.3449 4.2082 7.3743 4.1653h30.122l-86.461 86.461c-2.1944 2.1069-3.0784 5.2354-2.311 8.1792 0.7674 2.9437 3.0662 5.2426 6.01 6.01 2.9437 0.7674 6.0723-0.11658 8.1792-2.311l86.461-86.461v30.122c-0.04284 3.0293 1.5488 5.8471 4.1653 7.3743 2.6166 1.5272 5.8528 1.5272 8.4693 0s4.2082-4.3449 4.1653-7.3743v-49.334c0.3386-2.4479-0.41772-4.9206-2.0677-6.7603s-4.0262-2.8595-6.4964-2.7882zm-167.84 33.682c-9.1817 0-16.8 7.6183-16.8 16.8v126c0 9.1817 7.6183 16.8 16.8 16.8h126c9.1817 0 16.8-7.6183 16.8-16.8v-105.66l-16.8 16.8v88.856h-126v-126h88.856l16.8-16.8h-38.456z"/>
</g>
<path d="m0 252v-252h252v252z" fill="none"/>
<path d="m45.36 206.64v-161.28h161.28v161.28z" fill="none"/>
<path d="m0 252v-252h252v252z" fill="none"/>
<path d="m40.32 211.68v-171.36h171.36v171.36z" fill="none"/>
<path d="m0 252v-252h252v252z" fill="none"/>
<path d="m20.16 231.84v-211.68h211.68v211.68z" fill="none"/>
<path d="m0 252v-252h252v252z" fill="none"/>
<path d="m15.12 236.88v-221.76h221.76v221.76z" fill="none"/>
<path d="m0 252v-252h252v252z" fill="none"/>
<path d="m10.08 241.92v-231.84h231.84v231.84z" fill="none"/>
<path d="m0 252v-252h252v252z" fill="none"/>
<path d="m5.04 246.96v-241.92h241.92v241.92z" fill="none"/>
<path d="m0 252v-252h252v252z" fill="none"/>
<path d="m15.12 236.88v-221.76h221.76v221.76z" fill="none"/>
<path d="m0 252v-252h252v252z" fill="none"/>
<path d="m25.2 226.8v-201.6h201.6v201.6z" fill="none"/>
<path d="m0 252v-252h252v252z" fill="none"/>
<path d="m35.28 216.72v-181.44h181.44v181.44z" fill="none"/>
<path d="m0 252v-252h252v252z" fill="none"/>
<path d="m45.36 206.64v-161.28h161.28v161.28z" fill="none"/>
<path d="m0 252v-252h252v252z" fill="none"/>
<path d="m50.4 201.6v-151.2h151.2v151.2z" fill="none"/>
</g>
</svg>
