<?xml version="1.0" encoding="iso-8859-1"?>
<!-- Generator: Adobe Illustrator 16.0.0, SVG Export Plug-In . SVG Version: 6.00 Build 0)  -->
<!DOCTYPE svg PUBLIC "-//W3C//DTD SVG 1.1//EN" "http://www.w3.org/Graphics/SVG/1.1/DTD/svg11.dtd">
<svg xmlns="http://www.w3.org/2000/svg" xmlns:xlink="http://www.w3.org/1999/xlink" version="1.1" id="Capa_1" x="0px" y="0px" width="512px" height="512px" viewBox="0 0 511.991 511.99" style="enable-background:new 0 0 511.991 511.99;" xml:space="preserve">
<g>
	<path d="M267.803,327.375C157.959,423.438,20.834,528.5,2.178,509.812c-18.688-18.688,86.375-155.813,182.375-265.656   L267.803,327.375z M501.397,169.703l-38.938-38.938c17.031-25.219,22.25-43.25,20.5-57.172l29.031-29.047L467.458,0l-29.656,29.656   c-24.719-2.313-61.75,16.5-128.75,83.469c-24.688,24.703-55.312,57.828-86.999,93.984l83.5,83.578   c36.219-31.703,69.312-62.328,94.03-87.047c17.688-17.719,31.906-33.25,43.375-47.109l24.5,24.484l-79.188,79.188   c-6.281,6.25-6.281,16.359,0,22.609c6.25,6.25,16.375,6.25,22.625,0l90.5-90.484C507.647,186.078,507.647,175.953,501.397,169.703z   " fill="#a9a9a9"/>
</g>
<g>
</g>
<g>
</g>
<g>
</g>
<g>
</g>
<g>
</g>
<g>
</g>
<g>
</g>
<g>
</g>
<g>
</g>
<g>
</g>
<g>
</g>
<g>
</g>
<g>
</g>
<g>
</g>
<g>
</g>
</svg>
