<?xml version="1.0" encoding="UTF-8"?>
<svg enable-background="new 0 0 283 147" version="1.1" viewBox="0 0 283 147" xml:space="preserve" xmlns="http://www.w3.org/2000/svg">
<style type="text/css">
	.st0{fill:#FFC836;}
	.st1{opacity:0.6;fill:#FFC836;}
	.st2{opacity:0.3;fill:#FFC836;}
	.st3{fill:#EAE4D3;}
</style>
	<circle class="st0" cx="130.58" cy="39.15" r="3.41"/>
	<circle class="st1" cx="147.54" cy="39.24" r="3.41"/>
	<circle class="st2" cx="164.51" cy="39.24" r="3.41"/>
	<path class="st3" d="m74.823 91.442c-2.964 1.897-6.401 2.934-10.312 3.111-0.771 0.119-1.474 0.111-2.111-0.022-0.638-0.133-1.164-0.407-1.578-0.822-0.326-0.355-0.526-0.785-0.6-1.289s8e-3 -1.037 0.244-1.6c0.326-0.77 0.896-1.459 1.711-2.066s1.845-1.074 3.089-1.4c1.007-0.267 2.007-0.362 3-0.289 0.992 0.074 2.007 0.275 3.045 0.6 0.711-1.096 1.356-2.385 1.933-3.867 0.578-1.481 1.126-3.044 1.645-4.689 0.518-1.644 1.037-3.318 1.556-5.022 0.518-1.703 1.051-3.341 1.6-4.912 0.548-1.57 1.14-3.015 1.778-4.333 0.637-1.318 1.356-2.407 2.156-3.267 0.444-0.474 0.993-0.815 1.645-1.022 0.651-0.207 1.318-0.312 2-0.312 0.681 0 1.34 0.067 1.978 0.2 0.637 0.134 1.163 0.319 1.578 0.556s0.673 0.489 0.778 0.755c0.104 0.267-0.022 0.519-0.378 0.756-0.8 0.504-1.474 1.393-2.022 2.667-0.549 1.274-1.067 2.763-1.556 4.467-0.489 1.705-0.986 3.542-1.489 5.512-0.504 1.971-1.104 3.896-1.8 5.778-0.697 1.882-1.541 3.638-2.533 5.267-0.993 1.63-2.216 2.964-3.667 4.001 1.363 1.008 2.8 2.037 4.312 3.089 1.511 1.052 3.096 2.037 4.756 2.956 1.659 0.918 3.393 1.74 5.2 2.467 1.807 0.726 3.674 1.267 5.6 1.622s3.926 0.489 6 0.4 4.193-0.474 6.356-1.155c0.296-0.089 0.526 0.184 0.689 0.822 0.163 0.637 0.178 1.378 0.045 2.222s-0.474 1.66-1.022 2.445c-0.549 0.785-1.4 1.296-2.556 1.534-1.719 0.355-3.46 0.326-5.223-0.089s-3.541-1.052-5.334-1.911c-1.793-0.86-3.585-1.882-5.378-3.067-1.793-1.186-3.556-2.4-5.289-3.645-1.734-1.244-3.423-2.438-5.067-3.578-1.646-1.144-3.239-2.099-4.779-2.87z"/>
	<path class="st3" d="m103.85 75.619c0 0.474-0.089 0.815-0.267 1.022-0.237 0.445-0.608 0.667-1.111 0.667-0.356 0-0.675-0.118-0.956-0.355-0.282-0.237-0.422-0.548-0.422-0.933 0-0.237 0.066-0.459 0.2-0.667 0.133-0.207 0.303-0.385 0.511-0.533-0.238-0.415-0.511-0.622-0.822-0.622s-0.644 0.126-1 0.378c-0.355 0.252-0.719 0.593-1.089 1.022-0.371 0.43-0.733 0.867-1.089 1.311-0.622 0.8-1.222 1.726-1.8 2.778s-1.089 2.133-1.533 3.245-0.8 2.208-1.067 3.289c-0.267 1.082-0.408 2.067-0.422 2.956-0.015 0.889 0.111 1.622 0.378 2.2s0.711 0.926 1.334 1.045c0.444 0.089 0.94-0.111 1.489-0.6 0.548-0.489 1.096-1.118 1.645-1.889 0.548-0.77 1.082-1.607 1.6-2.511s0.97-1.741 1.356-2.512c-0.622-0.267-1.052-0.704-1.289-1.311s-0.311-1.223-0.222-1.845 0.326-1.171 0.711-1.645 0.874-0.711 1.467-0.711c0.207 0 0.474 0.015 0.8 0.045s0.607 0.185 0.844 0.467 0.37 0.733 0.4 1.356c0.029 0.622-0.133 1.527-0.489 2.711 1.185-0.029 2.134-0.193 2.845-0.489s1.267-0.622 1.667-0.978c0.4-0.355 0.667-0.703 0.8-1.045 0.133-0.34 0.229-0.556 0.289-0.644 0.089-0.207 0.229-0.334 0.422-0.378 0.192-0.045 0.378-0.022 0.555 0.067 0.178 0.089 0.311 0.23 0.4 0.422 0.089 0.193 0.089 0.408 0 0.645-0.237 0.563-0.608 1.082-1.111 1.556-0.504 0.474-1.089 0.874-1.756 1.2-0.667 0.327-1.408 0.578-2.223 0.756-0.815 0.177-1.638 0.252-2.467 0.222-0.415 0.919-0.941 1.941-1.578 3.067-0.638 1.126-1.371 2.171-2.2 3.133-0.83 0.963-1.741 1.756-2.733 2.378-0.993 0.622-2.052 0.889-3.178 0.8-1.482-0.148-2.645-0.77-3.489-1.867-0.844-1.096-1.296-2.43-1.356-4-0.029-1.185 0.089-2.423 0.355-3.712 0.267-1.289 0.667-2.555 1.2-3.8s1.185-2.423 1.956-3.534c0.77-1.111 1.637-2.081 2.6-2.911 0.962-0.829 2.015-1.467 3.156-1.911 1.14-0.444 2.333-0.637 3.578-0.577 0.562 0.03 1.029 0.155 1.4 0.378 0.37 0.222 0.674 0.489 0.911 0.8s0.415 0.652 0.533 1.022c0.118 0.368 0.207 0.716 0.267 1.042z"/>
	<path class="st3" d="m122.07 76.019c0-0.237 0.067-0.459 0.2-0.667 0.133-0.207 0.303-0.385 0.511-0.533-0.149-0.355-0.386-0.533-0.711-0.533-0.415-0.029-0.874 0.156-1.378 0.556s-1.045 0.978-1.622 1.734c-0.578 0.755-1.178 1.689-1.8 2.8s-1.245 2.349-1.867 3.711c-0.386 0.86-0.704 1.785-0.956 2.778s-0.393 1.941-0.422 2.845c-0.03 0.904 0.059 1.696 0.267 2.378 0.207 0.682 0.578 1.126 1.111 1.333 0.415 0.178 0.851 0.134 1.311-0.134 0.459-0.266 0.918-0.681 1.378-1.244 0.459-0.563 0.933-1.245 1.422-2.045s0.963-1.637 1.422-2.511 0.904-1.749 1.334-2.623c0.429-0.874 0.837-1.681 1.222-2.423 0.415-0.978 0.822-1.904 1.222-2.778 0.401-0.874 0.734-1.659 1-2.356 0.267-0.696 0.444-1.289 0.533-1.778s0.045-0.822-0.134-1c-0.207-0.178-0.111-0.385 0.289-0.622s0.896-0.37 1.489-0.4c0.592-0.029 1.207 0.104 1.845 0.4 0.637 0.297 1.089 0.889 1.356 1.778 0.266 0.86 0.222 1.904-0.134 3.133-0.355 1.23-0.852 2.512-1.489 3.845s-1.319 2.652-2.044 3.956c-0.727 1.305-1.333 2.467-1.822 3.489s-0.771 1.838-0.845 2.445c-0.074 0.608 0.23 0.882 0.911 0.822 0.267-0.029 0.637-0.266 1.111-0.711s0.993-1.015 1.556-1.712c0.562-0.696 1.148-1.474 1.756-2.334 0.607-0.859 1.17-1.718 1.689-2.578 0.518-0.859 0.985-1.674 1.4-2.445 0.415-0.77 0.711-1.407 0.889-1.911 0.088-0.237 0.237-0.385 0.444-0.444s0.4-0.059 0.577 0c0.178 0.06 0.319 0.177 0.422 0.355 0.104 0.178 0.096 0.371-0.022 0.578-0.238 0.504-0.578 1.193-1.022 2.066-0.444 0.875-0.971 1.808-1.578 2.8-0.608 0.993-1.267 1.993-1.978 3-0.711 1.008-1.445 1.927-2.2 2.756-0.755 0.83-1.519 1.511-2.289 2.045-0.771 0.533-1.511 0.8-2.222 0.8-1.127 0.06-1.971-0.4-2.534-1.378s-0.771-2.222-0.622-3.734c-0.563 0.919-1.156 1.756-1.778 2.512-0.622 0.755-1.297 1.356-2.022 1.8-0.726 0.444-1.497 0.711-2.311 0.8-0.815 0.089-1.711-0.074-2.689-0.489-1.185-0.474-2.037-1.17-2.556-2.089-0.518-0.918-0.822-1.918-0.911-3s0-2.207 0.267-3.378c0.266-1.17 0.593-2.244 0.978-3.222 0.711-1.807 1.504-3.356 2.378-4.645s1.8-2.341 2.778-3.156 1.985-1.4 3.023-1.756c1.037-0.355 2.089-0.518 3.156-0.489 0.355 0.03 0.733 0.097 1.133 0.2 0.4 0.104 0.77 0.275 1.111 0.511 0.34 0.238 0.629 0.556 0.867 0.956 0.237 0.4 0.355 0.897 0.355 1.489 0 0.652-0.149 1.096-0.444 1.333-0.237 0.266-0.549 0.4-0.933 0.4-0.355 0-0.674-0.118-0.956-0.355-0.282-0.235-0.422-0.546-0.422-0.931z"/>
	<path class="st3" d="m147.54 76.019c0-0.237 0.067-0.459 0.2-0.667 0.133-0.207 0.303-0.385 0.511-0.533-0.149-0.355-0.386-0.533-0.711-0.533-0.415-0.029-0.874 0.156-1.378 0.556s-1.045 0.978-1.623 1.734c-0.577 0.755-1.178 1.689-1.8 2.8s-1.244 2.349-1.867 3.711c-0.385 0.86-0.704 1.785-0.956 2.778s-0.393 1.941-0.422 2.845c-0.03 0.904 0.059 1.696 0.267 2.378 0.207 0.682 0.577 1.126 1.111 1.333 0.622 0.266 1.274 0.067 1.956-0.6 0.682-0.666 1.378-1.562 2.089-2.689 0.711-1.126 1.4-2.37 2.066-3.734 0.667-1.363 1.281-2.607 1.845-3.734 0.563-1.452 1.185-2.985 1.867-4.6s1.356-3.207 2.023-4.778 1.303-3.082 1.911-4.534c0.607-1.451 1.126-2.748 1.556-3.889 0.429-1.141 0.74-2.074 0.933-2.8 0.192-0.726 0.214-1.163 0.067-1.311-0.208-0.178-0.111-0.385 0.289-0.623 0.4-0.237 0.896-0.37 1.489-0.4 0.592-0.029 1.207 0.104 1.845 0.4 0.637 0.297 1.089 0.889 1.356 1.778 0.207 0.652 0.148 1.608-0.178 2.867-0.326 1.26-0.807 2.689-1.445 4.289-0.637 1.6-1.385 3.327-2.244 5.178-0.86 1.852-1.726 3.682-2.6 5.489-0.874 1.808-1.705 3.549-2.489 5.223-0.785 1.674-1.422 3.141-1.911 4.401s-0.771 2.26-0.844 3c-0.074 0.741 0.14 1.082 0.645 1.022 0.296-0.029 0.673-0.266 1.133-0.711 0.459-0.445 0.97-1.015 1.534-1.712 0.563-0.696 1.14-1.474 1.733-2.334 0.593-0.859 1.156-1.718 1.689-2.578 0.533-0.859 1.007-1.674 1.422-2.445 0.415-0.77 0.711-1.407 0.889-1.911 0.088-0.237 0.237-0.385 0.444-0.444s0.4-0.059 0.577 0c0.178 0.06 0.319 0.177 0.423 0.355 0.103 0.178 0.095 0.371-0.022 0.578-0.238 0.504-0.578 1.193-1.022 2.066-0.444 0.875-0.971 1.808-1.578 2.8-0.608 0.993-1.267 1.993-1.978 3-0.711 1.008-1.445 1.927-2.2 2.756-0.755 0.83-1.519 1.511-2.289 2.045-0.771 0.533-1.511 0.8-2.222 0.8-1.127 0.06-1.963-0.392-2.512-1.356-0.549-0.963-0.763-2.185-0.645-3.667-0.563 0.919-1.155 1.741-1.778 2.467-0.622 0.726-1.289 1.311-2 1.756-0.711 0.444-1.482 0.711-2.311 0.8-0.83 0.089-1.719-0.074-2.667-0.489-1.186-0.474-2.037-1.17-2.556-2.089-0.518-0.918-0.822-1.918-0.911-3-0.088-1.082 0-2.207 0.267-3.378 0.266-1.17 0.593-2.244 0.978-3.222 0.711-1.807 1.503-3.356 2.378-4.645 0.874-1.289 1.8-2.341 2.778-3.156s1.984-1.4 3.022-1.756c1.037-0.355 2.089-0.518 3.156-0.489 0.355 0.03 0.733 0.097 1.133 0.2 0.4 0.104 0.77 0.275 1.111 0.511 0.34 0.238 0.629 0.556 0.867 0.956 0.237 0.4 0.355 0.897 0.355 1.489 0 0.593-0.134 1.022-0.4 1.289-0.238 0.296-0.563 0.444-0.978 0.444-0.355 0-0.674-0.118-0.956-0.355-0.282-0.236-0.422-0.547-0.422-0.932z"/>
	<path class="st3" d="m172.3 83.241c-0.444 0.875-0.971 1.808-1.578 2.8-0.608 0.993-1.267 1.993-1.978 3-0.711 1.008-1.445 1.927-2.2 2.756-0.756 0.83-1.519 1.511-2.289 2.045-0.771 0.533-1.511 0.8-2.223 0.8-0.592 0.03-1.103-0.089-1.533-0.355-0.429-0.266-0.778-0.645-1.045-1.134s-0.444-1.081-0.533-1.778c-0.089-0.696-0.089-1.445 0-2.244 0.119-0.978 0.348-2.015 0.689-3.111s0.734-2.193 1.178-3.289 0.896-2.156 1.356-3.178c0.459-1.022 0.859-1.948 1.2-2.778 0.341-0.829 0.578-1.525 0.711-2.089 0.134-0.563 0.096-0.948-0.111-1.156-0.207-0.178-0.111-0.385 0.289-0.622s0.896-0.37 1.489-0.4c0.593-0.029 1.207 0.104 1.845 0.4 0.637 0.297 1.089 0.889 1.356 1.778 0.266 0.86 0.222 1.904-0.134 3.133-0.355 1.23-0.852 2.512-1.489 3.845-0.638 1.333-1.319 2.652-2.045 3.956-0.726 1.305-1.333 2.467-1.822 3.489s-0.771 1.838-0.844 2.445c-0.074 0.608 0.229 0.882 0.911 0.822 0.296-0.029 0.674-0.266 1.134-0.711 0.459-0.445 0.97-1.015 1.533-1.712 0.563-0.696 1.141-1.474 1.734-2.334 0.592-0.859 1.155-1.718 1.689-2.578 0.533-0.859 1.007-1.674 1.422-2.445 0.415-0.77 0.711-1.407 0.889-1.911 0.089-0.237 0.237-0.385 0.444-0.444s0.4-0.059 0.578 0c0.178 0.06 0.318 0.177 0.422 0.355s0.096 0.371-0.022 0.578c-0.237 0.505-0.578 1.193-1.023 2.067zm-1.933-13.845c0.162-0.355 0.34-0.711 0.533-1.067 0.193-0.355 0.371-0.696 0.533-1.022 0.163-0.326 0.245-0.577 0.245-0.755 0-0.74-0.223-1.348-0.667-1.822s-0.941-0.829-1.489-1.067c-0.549-0.237-1.044-0.355-1.489-0.355-0.444 0-0.666 0.104-0.666 0.311 0 0.178-0.089 0.43-0.267 0.756-0.177 0.326-0.378 0.682-0.6 1.066-0.223 0.386-0.422 0.749-0.6 1.089-0.178 0.341-0.266 0.615-0.266 0.822 0 0.741 0.237 1.356 0.711 1.845s0.985 0.845 1.534 1.067c0.548 0.223 1.059 0.333 1.534 0.333 0.473 0 0.711-0.118 0.711-0.355-1e-3 -0.208 0.08-0.491 0.243-0.846z"/>
	<path class="st3" d="m191.23 78.019c-0.06 1.007-0.282 2.066-0.667 3.178-0.385 1.111-0.822 2.2-1.311 3.267s-0.978 2.082-1.467 3.044c-0.489 0.963-0.867 1.801-1.134 2.512-0.266 0.711-0.378 1.282-0.333 1.711 0.045 0.43 0.362 0.645 0.956 0.645 0.266 0 0.637-0.214 1.111-0.645 0.474-0.429 0.992-0.992 1.555-1.689 0.563-0.696 1.148-1.481 1.756-2.356 0.607-0.874 1.178-1.74 1.711-2.6s1.007-1.682 1.422-2.467 0.711-1.429 0.889-1.934c0.089-0.237 0.237-0.385 0.444-0.444s0.4-0.059 0.578 0c0.177 0.06 0.318 0.177 0.422 0.355s0.096 0.371-0.022 0.578c-0.238 0.504-0.578 1.193-1.022 2.066-0.444 0.875-0.971 1.808-1.578 2.8-0.608 0.993-1.267 1.993-1.978 3-0.711 1.008-1.445 1.927-2.201 2.756-0.755 0.83-1.518 1.511-2.289 2.045-0.771 0.533-1.511 0.8-2.222 0.8-0.593 0.03-1.097-0.111-1.511-0.422-0.415-0.311-0.755-0.733-1.022-1.267-0.266-0.533-0.452-1.134-0.555-1.8-0.104-0.667-0.111-1.34-0.022-2.023 0.148-1.214 0.429-2.415 0.844-3.6s0.867-2.318 1.356-3.4 0.97-2.074 1.445-2.978c0.474-0.904 0.829-1.689 1.067-2.356 0.237-0.666 0.318-1.178 0.244-1.534-0.074-0.355-0.422-0.518-1.045-0.489-0.326 0.03-0.785 0.289-1.378 0.778s-1.237 1.111-1.934 1.867c-0.696 0.755-1.4 1.586-2.111 2.489-0.711 0.904-1.349 1.771-1.911 2.6-0.563 1.156-1.149 2.304-1.756 3.445-0.608 1.141-1.149 2.215-1.623 3.222-0.474 1.008-0.822 1.897-1.045 2.667-0.222 0.771-0.23 1.363-0.022 1.778 0.118 0.238 0.022 0.482-0.289 0.734s-0.711 0.385-1.2 0.4-0.993-0.141-1.511-0.467-0.911-0.933-1.178-1.822c-0.237-0.711-0.222-1.645 0.045-2.8 0.267-1.156 0.652-2.393 1.156-3.711s1.066-2.667 1.689-4.045c0.622-1.378 1.185-2.644 1.689-3.8 0.503-1.155 0.874-2.148 1.111-2.978 0.237-0.829 0.237-1.363 0-1.6-0.207-0.178-0.111-0.385 0.289-0.622s0.904-0.37 1.511-0.4c0.607-0.029 1.223 0.104 1.845 0.4 0.622 0.297 1.067 0.889 1.334 1.778 0.118 0.385 0.162 0.808 0.133 1.267-0.03 0.46-0.104 0.941-0.222 1.445 0.562-0.652 1.133-1.274 1.711-1.867s1.163-1.111 1.756-1.556c0.593-0.444 1.171-0.8 1.734-1.067 0.562-0.266 1.111-0.4 1.644-0.4 1.156-0.029 2.015 0.474 2.578 1.511 0.563 1.038 0.741 2.371 0.534 4.001z"/>
	<path class="st3" d="m209.19 76.019c0-0.237 0.067-0.459 0.2-0.667 0.133-0.207 0.303-0.385 0.511-0.533-0.149-0.355-0.386-0.533-0.711-0.533-0.415-0.029-0.874 0.156-1.378 0.556s-1.045 0.978-1.623 1.734c-0.577 0.755-1.178 1.689-1.8 2.8s-1.244 2.349-1.867 3.711c-0.385 0.86-0.704 1.785-0.956 2.778s-0.393 1.941-0.422 2.845c-0.03 0.904 0.059 1.696 0.267 2.378 0.207 0.682 0.577 1.126 1.111 1.333 0.652 0.266 1.348 0.022 2.089-0.734 0.74-0.755 1.482-1.756 2.222-3s1.459-2.585 2.156-4.023c0.696-1.436 1.34-2.704 1.933-3.8 0-0.089 0.015-0.148 0.044-0.178 0.8-1.896 1.415-3.512 1.845-4.845 0.429-1.333 0.526-2.163 0.289-2.489-0.149-0.177-0.015-0.385 0.4-0.622s0.933-0.37 1.556-0.4c0.622-0.029 1.237 0.118 1.845 0.444 0.607 0.326 1.044 0.949 1.311 1.867 0.148 0.504 0.074 1.311-0.223 2.423-0.296 1.111-0.711 2.363-1.244 3.756s-1.141 2.852-1.822 4.378c-0.682 1.527-1.333 2.964-1.956 4.312-0.622 1.349-1.171 2.527-1.644 3.534-0.475 1.008-0.771 1.703-0.889 2.089 1.067-0.711 2.178-1.711 3.334-3s2.237-2.637 3.245-4.045c1.007-1.407 1.896-2.778 2.667-4.111 0.77-1.333 1.303-2.4 1.6-3.2 0.089-0.267 0.237-0.437 0.444-0.511s0.401-0.081 0.578-0.022c0.178 0.06 0.318 0.177 0.422 0.355s0.111 0.371 0.022 0.578c-0.682 1.511-1.533 3.104-2.555 4.778s-2.141 3.282-3.356 4.822c-1.216 1.541-2.489 2.927-3.823 4.156-1.333 1.229-2.638 2.17-3.912 2.822-0.177 0.444-0.415 1.014-0.711 1.711-0.297 0.696-0.6 1.4-0.911 2.111-0.312 0.711-0.593 1.378-0.844 2-0.252 0.622-0.438 1.082-0.556 1.378-0.297 0.829-0.764 1.534-1.4 2.112-0.638 0.578-1.356 1.022-2.156 1.333s-1.63 0.489-2.489 0.533c-0.86 0.045-1.66-0.045-2.4-0.267-0.741-0.222-1.385-0.593-1.934-1.111-0.548-0.519-0.896-1.178-1.045-1.978-0.029-0.267 8e-3 -0.586 0.111-0.956 0.104-0.371 0.363-0.763 0.778-1.178 0.474-0.474 1.045-0.904 1.711-1.289 0.667-0.385 1.363-0.755 2.089-1.111s1.437-0.719 2.133-1.089c0.696-0.371 1.296-0.778 1.801-1.223 0.296-0.83 0.644-1.749 1.044-2.756 0.401-1.008 0.837-2.059 1.312-3.156-0.86 0.83-1.801 1.385-2.822 1.667-1.022 0.281-2.171 0.17-3.445-0.334-1.186-0.474-2.037-1.17-2.556-2.089-0.518-0.918-0.822-1.918-0.911-3-0.088-1.082 0-2.207 0.267-3.378 0.266-1.17 0.593-2.244 0.978-3.222 0.711-1.807 1.503-3.356 2.378-4.645 0.874-1.289 1.8-2.341 2.778-3.156s1.985-1.4 3.022-1.756c1.037-0.355 2.089-0.518 3.156-0.489 0.355 0.03 0.733 0.097 1.133 0.2 0.4 0.104 0.77 0.275 1.111 0.511 0.34 0.238 0.629 0.556 0.867 0.956 0.237 0.4 0.355 0.897 0.355 1.489 0 0.593-0.134 1.022-0.4 1.289-0.238 0.296-0.563 0.444-0.978 0.444-0.355 0-0.674-0.118-0.956-0.355-0.28-0.236-0.42-0.547-0.42-0.932zm-6.534 24.713c-0.444 0.355-0.949 0.667-1.511 0.933-0.563 0.267-1.127 0.533-1.689 0.8-0.563 0.266-1.104 0.562-1.623 0.889-0.518 0.326-0.94 0.711-1.267 1.155-0.207 0.296-0.289 0.622-0.245 0.978 0.044 0.355 0.178 0.674 0.401 0.956 0.222 0.281 0.504 0.496 0.844 0.645 0.341 0.148 0.718 0.162 1.133 0.045 0.415-0.119 0.845-0.408 1.289-0.867 0.444-0.46 0.859-1.163 1.244-2.111 0.178-0.415 0.392-0.904 0.645-1.467 0.253-0.564 0.513-1.216 0.779-1.956z"/>
</svg>
