<?xml version="1.0" encoding="utf-8"?>
<!-- Generator: Adobe Illustrator 19.0.0, SVG Export Plug-In . SVG Version: 6.00 Build 0)  -->
<svg version="1.1" id="Layer_1" xmlns="http://www.w3.org/2000/svg" xmlns:xlink="http://www.w3.org/1999/xlink" x="0px" y="0px"
	 viewBox="-464 266 30 30" style="enable-background:new -464 266 30 30;" xml:space="preserve">
<style type="text/css">
	.st0{fill:#A9A9A9;}
</style>
<path class="st0" d="M-447.9,267.4c-7.6,0-12.1,5.4-12.1,9.7c0,2.6,1.9,5.3,2.8,5.3s1.9,0,1.9-0.9c0-0.9-1.9-1.8-1.9-4.4
	c0-3.9,4.4-7.1,9.3-7.1c4.3,0,6.5,2.9,6.5,6.2c0,4.4-2.5,8-5.6,8c-1.7,0-3.2-1-2.8-2.7c0.5-1.9,0.9-1.8,1.9-5.3
	c0.3-1.2-0.4-2.7-1.9-2.7c-1.7,0-3.7,1.3-3.7,3.5c0,1.4,0.9,2.7,0.9,2.7s-2.1,7-2.4,8.2c-0.6,2.5-1.4,6-0.5,6s1.9-1.8,3.8-6.2
	c0.3-0.7,0.9-2.7,0.9-2.7c0.6,1,2.9,1.8,4.6,1.8c5.1,0,8.3-4.6,8.3-10.6C-437.8,271.8-441.8,267.4-447.9,267.4z"/>
</svg>
