<svg width="512" height="512" viewBox="0 0 489.5 489.5" xmlns="http://www.w3.org/2000/svg"><g fill="#fcfcfc"><path d="M392.15 451.4V38c0-20.9-17-38-38-38h-218.8c-20.9 0-38 17-38 38v413.5c0 20.9 17 38 38 38h218.8c20.9-.1 38-17.1 38-38.1zM121.85 88.1h245.7v278.2h-245.7V88.1zm13.5-63.6h218.8c7.4 0 13.5 6 13.5 13.5v25.6h-245.8V38c0-7.5 6.1-13.5 13.5-13.5zm-13.5 426.9v-60.7h245.7v60.7c0 7.4-6 13.5-13.5 13.5h-218.7c-7.4 0-13.5-6-13.5-13.5z"/><path d="M269.55 416.6h-49.7c-6.8 0-12.3 5.5-12.3 12.3s5.5 12.3 12.3 12.3h49.7c6.8 0 12.3-5.5 12.3-12.3s-5.5-12.3-12.3-12.3z"/></g></svg>