<svg width="512" height="512" viewBox="0 0 55.343 55.343" xmlns="http://www.w3.org/2000/svg"><path d="M10.485 7.094h3.587a3 3 0 1 0 0-6H3.242l-.027.003c-.188.001-.375.02-.56.056-.09.018-.174.052-.262.078-.1.029-.202.053-.299.093-.1.042-.191.098-.285.15-.077.042-.157.076-.231.126-.162.108-.312.23-.449.367l-.008.007-.015.019c-.034.035-.061.077-.094.114A2.982 2.982 0 0 0 .001 4.338v10.83a3 3 0 1 0 6 0v-4.072l10.124 10.122c.585.585 1.354.878 2.121.878s1.536-.293 2.122-.879a3.001 3.001 0 0 0 0-4.243l-9.883-9.88zm5.64 27.03L6 44.249v-4.072a3 3 0 1 0-6 0v10.83c0 .891.396 1.682 1.011 2.23.17.19.355.365.568.507.071.048.148.08.222.121.097.054.191.111.294.154.098.041.199.063.3.094.087.025.17.059.26.076.194.039.391.06.587.06h10.83a3 3 0 1 0 0-6h-3.588l9.883-9.883a2.998 2.998 0 0 0 0-4.242 2.998 2.998 0 0 0-4.242 0zm36.217 3.053a3 3 0 0 0-3 3v4.072L39.217 34.124a2.998 2.998 0 0 0-4.242 0 2.998 2.998 0 0 0 0 4.242l9.883 9.883H41.27a3 3 0 1 0 0 6H52.1c.196 0 .394-.021.587-.06.093-.018.178-.052.268-.079.098-.029.197-.051.292-.09.107-.045.206-.105.308-.162.069-.039.142-.068.208-.113.213-.143.399-.316.569-.508a2.982 2.982 0 0 0 1.011-2.23v-10.83a3.001 3.001 0 0 0-3.001-3zM36.975 22.099a2.99 2.99 0 0 0 2.121-.879l10.125-10.125v4.072a3 3 0 1 0 6 0V4.336c0-.89-.396-1.682-1.012-2.231a3.005 3.005 0 0 0-.567-.507c-.069-.046-.144-.077-.215-.117-.1-.055-.195-.115-.302-.159-.097-.04-.197-.063-.297-.092-.087-.026-.171-.06-.263-.078a2.967 2.967 0 0 0-.587-.059h-10.83a3 3 0 1 0 0 6h3.588l-9.883 9.883a2.998 2.998 0 0 0 0 4.242 2.991 2.991 0 0 0 2.122.881z" fill="#c1c1c1"/></svg>