<?xml version="1.0" encoding="iso-8859-1"?>
<svg xmlns="http://www.w3.org/2000/svg" xmlns:xlink="http://www.w3.org/1999/xlink" version="1.1" viewBox="0 0 235.786 235.786" enable-background="new 0 0 235.786 235.786" width="512px" height="512px">
  <g>
    <path d="m227.956,100.056l-57.424-57.424c-3.48-3.48-8.701-3.48-12.181,0s-3.48,8.701 0,12.181l53.944,53.944h-203.594c-5.22,0-8.701,3.48-8.701,8.701 0,5.22 3.48,8.701 8.701,8.701h205.334l-55.684,55.684c-3.48,3.48-3.48,8.701 0,12.181 1.74,1.74 5.22,1.74 6.96,1.74 3.48,0 5.22,0 5.22-1.74l57.424-57.424c10.442-10.442 10.442-26.103 0.001-36.544z" fill="#fcfcfc"/>
  </g>
</svg>
