<svg xmlns="http://www.w3.org/2000/svg" width="512" height="512" viewBox="0 0 511.991 511.99"><path d="M267.803 327.375C157.959 423.438 20.834 528.5 2.178 509.812c-18.688-18.688 86.375-155.813 182.375-265.656l83.25 83.219zm233.594-157.672l-38.938-38.938c17.031-25.219 22.25-43.25 20.5-57.172l29.031-29.047L467.458 0l-29.656 29.656c-24.719-2.313-61.75 16.5-128.75 83.469-24.688 24.703-55.312 57.828-86.999 93.984l83.5 83.578c36.219-31.703 69.312-62.328 94.03-87.047 17.688-17.719 31.906-33.25 43.375-47.109l24.5 24.484-79.188 79.188a15.92 15.92 0 0 0 0 22.609c6.25 6.25 16.375 6.25 22.625 0l90.5-90.484c6.252-6.25 6.252-16.375.002-22.625z" fill="#a9a9a9"/></svg>