<svg viewBox="32 -232 396 396" xmlns="http://www.w3.org/2000/svg"><path d="M282.8 21.5c10.6 13.3 11.1 28.5 10.9 43.8-.2 18.6 0 37.2 0 55.8 0 6-.1 6.1-6.9 6.1h-84.1c-6.3 0-6.8-.5-6.8-6V85c-4.8.4-9.7.9-14.5 1.3-23.7 2-44.3-3.3-60.3-19.3-2.2-2.2-4-4.9-5.9-7.4-8.1-11.1-16-22.4-24.5-33.4-2.6-3.4-6.6-6-10-8.9-1.8-1.6-3.5-3.1-5.6-5 5.8-3.3 11.5-2.4 16.7-1.7 13.3 1.8 22.2 8.9 29.3 18.3 3.5 4.7 7.2 9.5 11.7 13.4C147.3 54.9 164.9 59 184.9 55c12.9-2.5 10.4-1.4 12.3-11.6 1.3-6.8 3.4-13.3 7.7-19.2.7-1 1.3-2 2.2-3.4-5.7-1-10.9-1.7-16.1-2.8-20.7-4.1-39.7-11.1-54.8-24.6-16-14.2-24.6-31.3-25.2-51.3-.5-16.8-.4-33.6 4-50.1 2.8-10.6 7.9-20.1 16.9-28 1.4-1.2 2.2-4.1 1.5-5.7-6.4-15.7-5.5-31.3.4-47 1-2.7 2.1-3.4 5.2-2.6 11.3 2.7 21.1 7.8 29.2 15.1 5.5 5 10.6 10.3 16.1 15.8 14-8.8 30.6-9.1 47-10 18.1-.9 36.3-.7 54 2.7 6.9 1.3 13.5 4 19.6 5.8 7.2-6 14.7-12 22-18.2 6.6-5.6 14.5-9 23.3-11.1 3.4-.8 5.1-.1 6.3 2.8 6.1 15.2 7.1 30.5.3 45.7-1 2.2-1.7 4.3.7 6.3 12 10 17.9 22.4 19.2 36.5 1.3 14.8 3 29.8 2.1 44.5-1.7 27.8-17.3 48.4-44.6 62.2-14.6 7.4-30.6 11.5-47.2 13.7-.9.1-1.9.2-2.8.4-.4 0-.7.3-1.4.6z" fill="#a9a9a9"/></svg>