<svg viewBox="0 0 283 147" xmlns="http://www.w3.org/2000/svg"><style>.st3{fill:#eae4d3}</style><circle cx="130.58" cy="39.15" r="3.41" fill="#ffc836"/><circle cx="147.54" cy="39.24" r="3.41" opacity=".6" fill="#ffc836"/><circle cx="164.51" cy="39.24" r="3.41" opacity=".3" fill="#ffc836"/><path class="st3" d="M74.823 91.442c-2.964 1.897-6.401 2.934-10.312 3.111-.771.119-1.474.111-2.111-.022-.638-.133-1.164-.407-1.578-.822-.326-.355-.526-.785-.6-1.289s.008-1.037.244-1.6c.326-.77.896-1.459 1.711-2.066s1.845-1.074 3.089-1.4a9.044 9.044 0 0 1 3-.289c.992.074 2.007.275 3.045.6.711-1.096 1.356-2.385 1.933-3.867a74.84 74.84 0 0 0 1.645-4.689 548.34 548.34 0 0 0 1.556-5.022 126.415 126.415 0 0 1 1.6-4.912 40.858 40.858 0 0 1 1.778-4.333c.637-1.318 1.356-2.407 2.156-3.267a3.777 3.777 0 0 1 1.645-1.022 6.565 6.565 0 0 1 2-.312c.681 0 1.34.067 1.978.2.637.134 1.163.319 1.578.556s.673.489.778.755c.104.267-.022.519-.378.756-.8.504-1.474 1.393-2.022 2.667-.549 1.274-1.067 2.763-1.556 4.467a195.244 195.244 0 0 0-1.489 5.512 58.234 58.234 0 0 1-1.8 5.778 30.387 30.387 0 0 1-2.533 5.267c-.993 1.63-2.216 2.964-3.667 4.001a183.81 183.81 0 0 0 4.312 3.089 54.583 54.583 0 0 0 4.756 2.956 46.83 46.83 0 0 0 5.2 2.467c1.807.726 3.674 1.267 5.6 1.622s3.926.489 6 .4 4.193-.474 6.356-1.155c.296-.089.526.184.689.822.163.637.178 1.378.045 2.222s-.474 1.66-1.022 2.445c-.549.785-1.4 1.296-2.556 1.534-1.719.355-3.46.326-5.223-.089s-3.541-1.052-5.334-1.911a45.291 45.291 0 0 1-5.378-3.067 166.461 166.461 0 0 1-5.289-3.645 388.082 388.082 0 0 0-5.067-3.578c-1.646-1.144-3.239-2.099-4.779-2.87z"/><path class="st3" d="M103.85 75.619c0 .474-.089.815-.267 1.022-.237.445-.608.667-1.111.667-.356 0-.675-.118-.956-.355a1.159 1.159 0 0 1-.422-.933c0-.237.066-.459.2-.667.133-.207.303-.385.511-.533-.238-.415-.511-.622-.822-.622s-.644.126-1 .378a6.253 6.253 0 0 0-1.089 1.022c-.371.43-.733.867-1.089 1.311-.622.8-1.222 1.726-1.8 2.778s-1.089 2.133-1.533 3.245-.8 2.208-1.067 3.289c-.267 1.082-.408 2.067-.422 2.956-.015.889.111 1.622.378 2.2s.711.926 1.334 1.045c.444.089.94-.111 1.489-.6.548-.489 1.096-1.118 1.645-1.889.548-.77 1.082-1.607 1.6-2.511s.97-1.741 1.356-2.512c-.622-.267-1.052-.704-1.289-1.311s-.311-1.223-.222-1.845.326-1.171.711-1.645.874-.711 1.467-.711c.207 0 .474.015.8.045s.607.185.844.467.37.733.4 1.356c.029.622-.133 1.527-.489 2.711 1.185-.029 2.134-.193 2.845-.489s1.267-.622 1.667-.978c.4-.355.667-.703.8-1.045.133-.34.229-.556.289-.644.089-.207.229-.334.422-.378a.798.798 0 0 1 .555.067c.178.089.311.23.4.422.089.193.089.408 0 .645-.237.563-.608 1.082-1.111 1.556a7.079 7.079 0 0 1-1.756 1.2 9.765 9.765 0 0 1-2.223.756 9.899 9.899 0 0 1-2.467.222 38.483 38.483 0 0 1-1.578 3.067 19.544 19.544 0 0 1-2.2 3.133 12.095 12.095 0 0 1-2.733 2.378c-.993.622-2.052.889-3.178.8-1.482-.148-2.645-.77-3.489-1.867-.844-1.096-1.296-2.43-1.356-4a16.376 16.376 0 0 1 .355-3.712c.267-1.289.667-2.555 1.2-3.8s1.185-2.423 1.956-3.534a15.394 15.394 0 0 1 2.6-2.911 10.83 10.83 0 0 1 3.156-1.911 8.61 8.61 0 0 1 3.578-.577c.562.03 1.029.155 1.4.378.37.222.674.489.911.8s.415.652.533 1.022c.118.368.207.716.267 1.042zm18.22.4c0-.237.067-.459.2-.667.133-.207.303-.385.511-.533-.149-.355-.386-.533-.711-.533-.415-.029-.874.156-1.378.556s-1.045.978-1.622 1.734c-.578.755-1.178 1.689-1.8 2.8s-1.245 2.349-1.867 3.711c-.386.86-.704 1.785-.956 2.778s-.393 1.941-.422 2.845c-.03.904.059 1.696.267 2.378.207.682.578 1.126 1.111 1.333.415.178.851.134 1.311-.134.459-.266.918-.681 1.378-1.244.459-.563.933-1.245 1.422-2.045s.963-1.637 1.422-2.511.904-1.749 1.334-2.623c.429-.874.837-1.681 1.222-2.423.415-.978.822-1.904 1.222-2.778.401-.874.734-1.659 1-2.356.267-.696.444-1.289.533-1.778s.045-.822-.134-1c-.207-.178-.111-.385.289-.622s.896-.37 1.489-.4c.592-.029 1.207.104 1.845.4.637.297 1.089.889 1.356 1.778.266.86.222 1.904-.134 3.133-.355 1.23-.852 2.512-1.489 3.845s-1.319 2.652-2.044 3.956c-.727 1.305-1.333 2.467-1.822 3.489s-.771 1.838-.845 2.445c-.074.608.23.882.911.822.267-.029.637-.266 1.111-.711s.993-1.015 1.556-1.712a45.92 45.92 0 0 0 1.756-2.334 42.705 42.705 0 0 0 1.689-2.578c.518-.859.985-1.674 1.4-2.445.415-.77.711-1.407.889-1.911.088-.237.237-.385.444-.444s.4-.059.577 0c.178.06.319.177.422.355.104.178.096.371-.022.578a82.618 82.618 0 0 1-1.022 2.066 40.664 40.664 0 0 1-1.578 2.8 54.984 54.984 0 0 1-1.978 3 28.391 28.391 0 0 1-2.2 2.756c-.755.83-1.519 1.511-2.289 2.045-.771.533-1.511.8-2.222.8-1.127.06-1.971-.4-2.534-1.378s-.771-2.222-.622-3.734a22.196 22.196 0 0 1-1.778 2.512c-.622.755-1.297 1.356-2.022 1.8a5.54 5.54 0 0 1-2.311.8c-.815.089-1.711-.074-2.689-.489-1.185-.474-2.037-1.17-2.556-2.089-.518-.918-.822-1.918-.911-3s0-2.207.267-3.378c.266-1.17.593-2.244.978-3.222.711-1.807 1.504-3.356 2.378-4.645s1.8-2.341 2.778-3.156 1.985-1.4 3.023-1.756a8.924 8.924 0 0 1 3.156-.489c.355.03.733.097 1.133.2.4.104.77.275 1.111.511.34.238.629.556.867.956.237.4.355.897.355 1.489 0 .652-.149 1.096-.444 1.333-.237.266-.549.4-.933.4-.355 0-.674-.118-.956-.355-.282-.235-.422-.546-.422-.931zm25.47 0c0-.237.067-.459.2-.667.133-.207.303-.385.511-.533-.149-.355-.386-.533-.711-.533-.415-.029-.874.156-1.378.556s-1.045.978-1.623 1.734c-.577.755-1.178 1.689-1.8 2.8s-1.244 2.349-1.867 3.711c-.385.86-.704 1.785-.956 2.778s-.393 1.941-.422 2.845c-.03.904.059 1.696.267 2.378.207.682.577 1.126 1.111 1.333.622.266 1.274.067 1.956-.6.682-.666 1.378-1.562 2.089-2.689.711-1.126 1.4-2.37 2.066-3.734a472.889 472.889 0 0 1 1.845-3.734c.563-1.452 1.185-2.985 1.867-4.6s1.356-3.207 2.023-4.778 1.303-3.082 1.911-4.534a118.458 118.458 0 0 0 1.556-3.889c.429-1.141.74-2.074.933-2.8.192-.726.214-1.163.067-1.311-.208-.178-.111-.385.289-.623.4-.237.896-.37 1.489-.4.592-.029 1.207.104 1.845.4.637.297 1.089.889 1.356 1.778.207.652.148 1.608-.178 2.867-.326 1.26-.807 2.689-1.445 4.289-.637 1.6-1.385 3.327-2.244 5.178a385.273 385.273 0 0 1-2.6 5.489 472.609 472.609 0 0 0-2.489 5.223c-.785 1.674-1.422 3.141-1.911 4.401s-.771 2.26-.844 3c-.074.741.14 1.082.645 1.022.296-.029.673-.266 1.133-.711.459-.445.97-1.015 1.534-1.712a38.189 38.189 0 0 0 1.733-2.334 62.412 62.412 0 0 0 1.689-2.578 46.12 46.12 0 0 0 1.422-2.445c.415-.77.711-1.407.889-1.911.088-.237.237-.385.444-.444s.4-.059.577 0c.178.06.319.177.423.355.103.178.095.371-.022.578a82.618 82.618 0 0 1-1.022 2.066 40.664 40.664 0 0 1-1.578 2.8 54.984 54.984 0 0 1-1.978 3 28.391 28.391 0 0 1-2.2 2.756c-.755.83-1.519 1.511-2.289 2.045-.771.533-1.511.8-2.222.8-1.127.06-1.963-.392-2.512-1.356-.549-.963-.763-2.185-.645-3.667a19.097 19.097 0 0 1-1.778 2.467c-.622.726-1.289 1.311-2 1.756a5.4 5.4 0 0 1-2.311.8c-.83.089-1.719-.074-2.667-.489-1.186-.474-2.037-1.17-2.556-2.089a7.237 7.237 0 0 1-.911-3c-.088-1.082 0-2.207.267-3.378.266-1.17.593-2.244.978-3.222.711-1.807 1.503-3.356 2.378-4.645.874-1.289 1.8-2.341 2.778-3.156s1.984-1.4 3.022-1.756a8.924 8.924 0 0 1 3.156-.489c.355.03.733.097 1.133.2.4.104.77.275 1.111.511.34.238.629.556.867.956.237.4.355.897.355 1.489 0 .593-.134 1.022-.4 1.289-.238.296-.563.444-.978.444-.355 0-.674-.118-.956-.355a1.155 1.155 0 0 1-.422-.932zm24.76 7.222a40.664 40.664 0 0 1-1.578 2.8 54.984 54.984 0 0 1-1.978 3 28.391 28.391 0 0 1-2.2 2.756c-.756.83-1.519 1.511-2.289 2.045-.771.533-1.511.8-2.223.8-.592.03-1.103-.089-1.533-.355-.429-.266-.778-.645-1.045-1.134s-.444-1.081-.533-1.778a9.452 9.452 0 0 1 0-2.244c.119-.978.348-2.015.689-3.111s.734-2.193 1.178-3.289.896-2.156 1.356-3.178a94.548 94.548 0 0 0 1.2-2.778c.341-.829.578-1.525.711-2.089.134-.563.096-.948-.111-1.156-.207-.178-.111-.385.289-.622s.896-.37 1.489-.4c.593-.029 1.207.104 1.845.4.637.297 1.089.889 1.356 1.778.266.86.222 1.904-.134 3.133a25.11 25.11 0 0 1-1.489 3.845 72.272 72.272 0 0 1-2.045 3.956c-.726 1.305-1.333 2.467-1.822 3.489s-.771 1.838-.844 2.445c-.074.608.229.882.911.822.296-.029.674-.266 1.134-.711.459-.445.97-1.015 1.533-1.712a38.183 38.183 0 0 0 1.734-2.334 64.54 64.54 0 0 0 1.689-2.578 46.12 46.12 0 0 0 1.422-2.445c.415-.77.711-1.407.889-1.911.089-.237.237-.385.444-.444s.4-.059.578 0c.178.06.318.177.422.355s.096.371-.022.578a76.492 76.492 0 0 1-1.023 2.067zm-1.933-13.845c.162-.355.34-.711.533-1.067.193-.355.371-.696.533-1.022.163-.326.245-.577.245-.755 0-.74-.223-1.348-.667-1.822s-.941-.829-1.489-1.067c-.549-.237-1.044-.355-1.489-.355-.444 0-.666.104-.666.311 0 .178-.089.43-.267.756-.177.326-.378.682-.6 1.066-.223.386-.422.749-.6 1.089-.178.341-.266.615-.266.822 0 .741.237 1.356.711 1.845s.985.845 1.534 1.067c.548.223 1.059.333 1.534.333.473 0 .711-.118.711-.355-.001-.208.08-.491.243-.846zm20.863 8.623c-.06 1.007-.282 2.066-.667 3.178-.385 1.111-.822 2.2-1.311 3.267s-.978 2.082-1.467 3.044a25.49 25.49 0 0 0-1.134 2.512c-.266.711-.378 1.282-.333 1.711.045.43.362.645.956.645.266 0 .637-.214 1.111-.645.474-.429.992-.992 1.555-1.689a40.536 40.536 0 0 0 1.756-2.356c.607-.874 1.178-1.74 1.711-2.6s1.007-1.682 1.422-2.467.711-1.429.889-1.934c.089-.237.237-.385.444-.444s.4-.059.578 0c.177.06.318.177.422.355s.096.371-.022.578a82.618 82.618 0 0 1-1.022 2.066 40.664 40.664 0 0 1-1.578 2.8 54.984 54.984 0 0 1-1.978 3 28.246 28.246 0 0 1-2.201 2.756c-.755.83-1.518 1.511-2.289 2.045-.771.533-1.511.8-2.222.8-.593.03-1.097-.111-1.511-.422-.415-.311-.755-.733-1.022-1.267a6.097 6.097 0 0 1-.555-1.8 7.1 7.1 0 0 1-.022-2.023c.148-1.214.429-2.415.844-3.6s.867-2.318 1.356-3.4.97-2.074 1.445-2.978c.474-.904.829-1.689 1.067-2.356.237-.666.318-1.178.244-1.534-.074-.355-.422-.518-1.045-.489-.326.03-.785.289-1.378.778s-1.237 1.111-1.934 1.867c-.696.755-1.4 1.586-2.111 2.489a45.842 45.842 0 0 0-1.911 2.6 108.322 108.322 0 0 1-1.756 3.445 72.958 72.958 0 0 0-1.623 3.222c-.474 1.008-.822 1.897-1.045 2.667-.222.771-.23 1.363-.022 1.778.118.238.022.482-.289.734s-.711.385-1.2.4-.993-.141-1.511-.467-.911-.933-1.178-1.822c-.237-.711-.222-1.645.045-2.8.267-1.156.652-2.393 1.156-3.711s1.066-2.667 1.689-4.045a325.72 325.72 0 0 0 1.689-3.8c.503-1.155.874-2.148 1.111-2.978.237-.829.237-1.363 0-1.6-.207-.178-.111-.385.289-.622s.904-.37 1.511-.4c.607-.029 1.223.104 1.845.4.622.297 1.067.889 1.334 1.778.118.385.162.808.133 1.267a8.88 8.88 0 0 1-.222 1.445c.562-.652 1.133-1.274 1.711-1.867s1.163-1.111 1.756-1.556a10.24 10.24 0 0 1 1.734-1.067c.562-.266 1.111-.4 1.644-.4 1.156-.029 2.015.474 2.578 1.511.563 1.038.741 2.371.534 4.001zm17.96-2c0-.237.067-.459.2-.667.133-.207.303-.385.511-.533-.149-.355-.386-.533-.711-.533-.415-.029-.874.156-1.378.556s-1.045.978-1.623 1.734c-.577.755-1.178 1.689-1.8 2.8s-1.244 2.349-1.867 3.711c-.385.86-.704 1.785-.956 2.778s-.393 1.941-.422 2.845c-.03.904.059 1.696.267 2.378.207.682.577 1.126 1.111 1.333.652.266 1.348.022 2.089-.734.74-.755 1.482-1.756 2.222-3s1.459-2.585 2.156-4.023a96.82 96.82 0 0 1 1.933-3.8c0-.089.015-.148.044-.178.8-1.896 1.415-3.512 1.845-4.845.429-1.333.526-2.163.289-2.489-.149-.177-.015-.385.4-.622s.933-.37 1.556-.4c.622-.029 1.237.118 1.845.444.607.326 1.044.949 1.311 1.867.148.504.074 1.311-.223 2.423-.296 1.111-.711 2.363-1.244 3.756s-1.141 2.852-1.822 4.378a369.359 369.359 0 0 1-1.956 4.312 550.309 550.309 0 0 1-1.644 3.534c-.475 1.008-.771 1.703-.889 2.089 1.067-.711 2.178-1.711 3.334-3s2.237-2.637 3.245-4.045a50.74 50.74 0 0 0 2.667-4.111c.77-1.333 1.303-2.4 1.6-3.2.089-.267.237-.437.444-.511s.401-.081.578-.022c.178.06.318.177.422.355s.111.371.022.578c-.682 1.511-1.533 3.104-2.555 4.778s-2.141 3.282-3.356 4.822a35.702 35.702 0 0 1-3.823 4.156c-1.333 1.229-2.638 2.17-3.912 2.822a88.226 88.226 0 0 1-.711 1.711c-.297.696-.6 1.4-.911 2.111a72.636 72.636 0 0 0-.844 2c-.252.622-.438 1.082-.556 1.378a5.16 5.16 0 0 1-1.4 2.112c-.638.578-1.356 1.022-2.156 1.333s-1.63.489-2.489.533a7.023 7.023 0 0 1-2.4-.267 4.773 4.773 0 0 1-1.934-1.111c-.548-.519-.896-1.178-1.045-1.978-.029-.267.008-.586.111-.956.104-.371.363-.763.778-1.178a8.222 8.222 0 0 1 1.711-1.289c.667-.385 1.363-.755 2.089-1.111s1.437-.719 2.133-1.089a9.391 9.391 0 0 0 1.801-1.223 83.57 83.57 0 0 1 1.044-2.756c.401-1.008.837-2.059 1.312-3.156-.86.83-1.801 1.385-2.822 1.667-1.022.281-2.171.17-3.445-.334-1.186-.474-2.037-1.17-2.556-2.089a7.237 7.237 0 0 1-.911-3c-.088-1.082 0-2.207.267-3.378.266-1.17.593-2.244.978-3.222.711-1.807 1.503-3.356 2.378-4.645.874-1.289 1.8-2.341 2.778-3.156s1.985-1.4 3.022-1.756a8.924 8.924 0 0 1 3.156-.489c.355.03.733.097 1.133.2.4.104.77.275 1.111.511.34.238.629.556.867.956.237.4.355.897.355 1.489 0 .593-.134 1.022-.4 1.289-.238.296-.563.444-.978.444-.355 0-.674-.118-.956-.355a1.16 1.16 0 0 1-.42-.932zm-6.534 24.713a7.655 7.655 0 0 1-1.511.933l-1.689.8c-.563.266-1.104.562-1.623.889-.518.326-.94.711-1.267 1.155a1.361 1.361 0 0 0-.245.978c.044.355.178.674.401.956.222.281.504.496.844.645.341.148.718.162 1.133.045.415-.119.845-.408 1.289-.867.444-.46.859-1.163 1.244-2.111.178-.415.392-.904.645-1.467.253-.564.513-1.216.779-1.956z"/></svg>