<?xml version="1.0" encoding="UTF-8"?>
<!DOCTYPE svg  PUBLIC '-//W3C//DTD SVG 1.1//EN'  'http://www.w3.org/Graphics/SVG/1.1/DTD/svg11.dtd'>
<svg width="512px" height="512px" enable-background="new 0 0 31.665 31.665" version="1.1" viewBox="0 0 31.665 31.665" xml:space="preserve" xmlns="http://www.w3.org/2000/svg">
	<path d="m16.878 0.415c-0.854-0.565-1.968-0.552-2.809 0.034l-12.584 8.765c-0.671 0.468-1.071 1.233-1.071 2.052v9.444c0 0.84 0.421 1.623 1.122 2.086l12.79 8.455c0.836 0.553 1.922 0.553 2.758 0l13.044-8.618c0.7-0.463 1.122-1.246 1.122-2.086v-9.279c0-0.839-0.421-1.622-1.121-2.085l-13.251-8.768zm9.743 10.23l-4.821 3.237-4.521-3.288-0.029-6.467 9.371 6.518zm-12.642-6.512v6.329l-4.633 3.24-4.621-3.099 9.254-6.47zm-10.521 9.589l2.991 2.004-2.991 2.093v-4.097zm10.6 13.493l-9.331-6.258 4.661-3.258 4.67 3.133v6.383zm-1.772-11.541l3.021-2.113 3.519 2.313-3.119 2.095-3.421-2.295zm5.068 11.541v-6.385l4.463-2.991 4.805 3.159-9.268 6.217zm10.6-9.288l-3.168-2.082 3.168-2.125v4.207z" fill="#6f6f6f"/>
</svg>
