<?xml version="1.0" encoding="UTF-8"?>
<!DOCTYPE svg  PUBLIC '-//W3C//DTD SVG 1.1//EN'  'http://www.w3.org/Graphics/SVG/1.1/DTD/svg11.dtd'>
<svg enable-background="new 0 0 512 512" version="1.1" viewBox="0 0 512 512" xml:space="preserve" xmlns="http://www.w3.org/2000/svg"><path fill="#6f6f6f" d="m258.9 507.2c-138.5 0.6-252.3-114.6-249-255.2 3-134 114.1-245 252.5-243.3 136.5 1.7 249.4 115.4 245.7 256.1-3.4 133.4-113.5 243-249.2 242.4zm218.9-249.2c-1-125.2-102.2-221.4-221.5-220-116.6 1.4-216.1 96.4-215.9 220.3 0.2 125.2 102.2 221.3 221.5 219.7 116.4-1.5 214.9-96.3 215.9-220z"/><path fill="#6f6f6f" d="m241.7 321.6c-2.5 10.8-5.4 21.5-7.6 32.3-5.3 26.7-14.9 51.6-30.1 74.2-2.6 3.8-5.2 7.7-8 11.4-0.7 0.9-2.6 2.2-3 1.9-1.1-0.7-2.3-2.2-2.3-3.4-0.9-16.8-2.4-33.5-2.2-50.3 0.3-22.3 7.3-43.5 11.9-65.1 2.9-13.6 5.8-27.3 8.7-40.9 1.6-7.6 3.7-15.2 4.9-22.9 0.6-3.6 0.6-7.7-0.5-11.1-6-18.8-6.1-37.3 1.8-55.5 3.9-9.1 9.8-16.8 19.4-20.9 16.9-7.2 33.6 2.8 35.5 21.3 1.4 13.1-1.8 25.4-5.2 37.8-3.9 14.6-8.6 29.1-11.1 43.9-3.8 22.6 15.3 39.3 37.6 34.3 15.4-3.4 25-13.9 32.6-26.5 9.8-16.5 15.2-34.6 16.8-53.6 0.9-10.9 1.8-21.9 1.5-32.9-0.5-16.5-5.6-31.7-16.2-44.6-10.5-12.7-24.2-20.4-40.2-23.6-19.5-3.9-38.6-2.7-57.2 5.1-17.5 7.3-30.9 19.1-40.6 35.1-12.7 20.9-17.4 43.6-13.9 67.9 1.3 9.1 4.6 17.7 10.6 24.9 3.5 4.3 4.9 8.7 2.8 14.2-1.5 4-1.9 8.4-2.9 12.6-1.6 7.1-5.4 8.6-11.9 5.4-19.2-9.6-27.8-26.7-32.9-46.2-4.2-16.4-4.4-33.1-1.6-49.6 3.6-21.2 12.4-40.5 25.8-57.5 15.4-19.5 34.9-33.2 58.3-41.1 23.1-7.9 47-9.9 70.9-5.6 30.5 5.5 55.5 20.9 73.7 46.4 17.7 24.9 24.1 52.8 21.3 83-1.5 15.7-4 31.3-9.2 46.3-8.7 25.3-21.9 47.5-45 62.2-7.7 4.9-16.5 8.4-25.3 11-7 2.1-14.7 2.6-22.1 2.6-17.5-0.2-32-7.2-42.6-21.4-0.4-0.5-0.5-1.3-0.7-1.9-0.7 0.3-1.3 0.5-1.8 0.8z"/></svg>
