<?xml version="1.0" encoding="UTF-8"?>
<!DOCTYPE svg  PUBLIC '-//W3C//DTD SVG 1.1//EN'  'http://www.w3.org/Graphics/SVG/1.1/DTD/svg11.dtd'>
<svg width="512px" height="512px" enable-background="new 0 0 64 64" version="1.1" viewBox="0 0 64 64" xmlns="http://www.w3.org/2000/svg">
<path d="m28.941 31.786-28.328 28.328c-0.787 0.787-0.787 2.062 0 2.849 0.393 0.394 0.909 0.59 1.424 0.59 0.516 0 1.031-0.196 1.424-0.59l28.541-28.541 28.541 28.541c0.394 0.394 0.909 0.59 1.424 0.59s1.031-0.196 1.424-0.59c0.787-0.787 0.787-2.062 0-2.849l-28.327-28.328 28.346-28.348c0.787-0.787 0.787-2.062 0-2.849-0.787-0.786-2.062-0.786-2.848 0l-28.559 28.561-28.562-28.56c-0.787-0.786-2.061-0.786-2.848 0-0.787 0.787-0.787 2.062 0 2.849l28.348 28.347z" fill="#fff"/>
</svg>
